G04 EAGLE Gerber X2 export*
%TF.Part,Single*%
%TF.FileFunction,Copper,L1,Top,Mixed*%
%TF.FilePolarity,Positive*%
%TF.GenerationSoftware,Autodesk,EAGLE,9.4.1*%
%TF.CreationDate,2019-06-30T19:39:41Z*%
G75*
%MOMM*%
%FSLAX34Y34*%
%LPD*%
%INTop Copper*%
%AMOC8*
5,1,8,0,0,1.08239X$1,22.5*%
G01*
%ADD10R,3.000000X1.200000*%
%ADD11R,0.558800X1.270000*%
%ADD12R,1.270000X0.558800*%
%ADD13R,1.200000X0.350000*%
%ADD14R,2.000000X1.500000*%
%ADD15R,2.000000X3.800000*%
%ADD16R,1.200000X1.100000*%
%ADD17R,1.550000X1.300000*%
%ADD18R,1.300000X1.550000*%
%ADD19C,1.676400*%
%ADD20R,1.676400X1.676400*%
%ADD21C,1.524000*%
%ADD22C,1.879600*%
%ADD23R,0.700000X0.900000*%
%ADD24R,1.050000X1.080000*%
%ADD25R,1.000000X1.000000*%
%ADD26R,1.000000X1.100000*%
%ADD27R,2.600000X1.600000*%
%ADD28R,0.800000X0.800000*%
%ADD29R,1.100000X1.000000*%
%ADD30R,0.900000X1.500000*%
%ADD31R,1.400000X1.000000*%
%ADD32R,1.400000X1.400000*%
%ADD33R,0.900000X0.700000*%
%ADD34C,0.812800*%
%ADD35C,0.609600*%
%ADD36C,0.406400*%
%ADD37C,0.355600*%
%ADD38C,0.508000*%
%ADD39C,0.756400*%
%ADD40C,0.304800*%

G36*
X554334Y4013D02*
X554334Y4013D01*
X554448Y4015D01*
X554521Y4033D01*
X554596Y4041D01*
X554704Y4076D01*
X554814Y4102D01*
X554882Y4135D01*
X554954Y4158D01*
X555052Y4216D01*
X555154Y4265D01*
X555213Y4311D01*
X555279Y4349D01*
X555362Y4426D01*
X555452Y4495D01*
X555500Y4553D01*
X555556Y4604D01*
X555621Y4696D01*
X555694Y4783D01*
X555730Y4849D01*
X555774Y4911D01*
X555818Y5015D01*
X555871Y5115D01*
X555892Y5188D01*
X555921Y5257D01*
X555943Y5369D01*
X555974Y5477D01*
X555981Y5568D01*
X555993Y5627D01*
X555992Y5688D01*
X555999Y5778D01*
X555999Y294222D01*
X555987Y294334D01*
X555985Y294448D01*
X555967Y294521D01*
X555959Y294596D01*
X555924Y294704D01*
X555898Y294814D01*
X555865Y294882D01*
X555842Y294954D01*
X555784Y295052D01*
X555735Y295154D01*
X555689Y295213D01*
X555651Y295279D01*
X555574Y295362D01*
X555505Y295452D01*
X555447Y295500D01*
X555396Y295556D01*
X555304Y295621D01*
X555217Y295694D01*
X555151Y295730D01*
X555089Y295774D01*
X554985Y295818D01*
X554885Y295871D01*
X554812Y295892D01*
X554743Y295921D01*
X554631Y295943D01*
X554523Y295974D01*
X554432Y295981D01*
X554373Y295993D01*
X554312Y295992D01*
X554222Y295999D01*
X354584Y295999D01*
X354472Y295987D01*
X354358Y295985D01*
X354285Y295967D01*
X354210Y295959D01*
X354102Y295924D01*
X353992Y295898D01*
X353924Y295865D01*
X353852Y295842D01*
X353754Y295784D01*
X353652Y295735D01*
X353593Y295689D01*
X353527Y295651D01*
X353444Y295574D01*
X353354Y295505D01*
X353306Y295447D01*
X353250Y295396D01*
X353185Y295304D01*
X353112Y295217D01*
X353076Y295151D01*
X353032Y295089D01*
X352988Y294985D01*
X352935Y294885D01*
X352914Y294812D01*
X352885Y294743D01*
X352863Y294631D01*
X352832Y294523D01*
X352825Y294432D01*
X352813Y294373D01*
X352814Y294312D01*
X352807Y294222D01*
X352807Y282930D01*
X352819Y282818D01*
X352821Y282705D01*
X352839Y282631D01*
X352847Y282556D01*
X352882Y282448D01*
X352908Y282339D01*
X352941Y282270D01*
X352964Y282198D01*
X353022Y282101D01*
X353071Y281999D01*
X353101Y281960D01*
X353101Y274335D01*
X353113Y274222D01*
X353115Y274109D01*
X353133Y274036D01*
X353141Y273960D01*
X353176Y273853D01*
X353202Y273743D01*
X353235Y273675D01*
X353258Y273603D01*
X353316Y273505D01*
X353365Y273403D01*
X353411Y273343D01*
X353449Y273278D01*
X353526Y273195D01*
X353595Y273105D01*
X353653Y273056D01*
X353704Y273001D01*
X353796Y272935D01*
X353883Y272862D01*
X353949Y272827D01*
X354011Y272783D01*
X354115Y272739D01*
X354215Y272686D01*
X354288Y272665D01*
X354357Y272635D01*
X354468Y272614D01*
X354577Y272583D01*
X354578Y272583D01*
X354585Y272516D01*
X354620Y272408D01*
X354646Y272298D01*
X354679Y272230D01*
X354703Y272158D01*
X354760Y272061D01*
X354809Y271959D01*
X354855Y271899D01*
X354893Y271834D01*
X354970Y271750D01*
X355039Y271661D01*
X355097Y271612D01*
X355148Y271556D01*
X355240Y271491D01*
X355327Y271418D01*
X355394Y271383D01*
X355455Y271339D01*
X355559Y271295D01*
X355659Y271241D01*
X355732Y271221D01*
X355802Y271191D01*
X355913Y271170D01*
X356022Y271139D01*
X356112Y271131D01*
X356171Y271120D01*
X356232Y271121D01*
X356322Y271113D01*
X363641Y271113D01*
X363641Y268278D01*
X363468Y267632D01*
X363133Y267053D01*
X362595Y266514D01*
X362549Y266483D01*
X362527Y266461D01*
X362502Y266442D01*
X362397Y266325D01*
X362288Y266211D01*
X362272Y266185D01*
X362251Y266161D01*
X362173Y266025D01*
X362091Y265891D01*
X362081Y265861D01*
X362065Y265834D01*
X362018Y265684D01*
X361966Y265536D01*
X361962Y265505D01*
X361952Y265475D01*
X361938Y265318D01*
X361918Y265162D01*
X361920Y265131D01*
X361917Y265100D01*
X361936Y264944D01*
X361950Y264787D01*
X361959Y264757D01*
X361963Y264726D01*
X362014Y264578D01*
X362060Y264427D01*
X362075Y264400D01*
X362085Y264370D01*
X362167Y264236D01*
X362243Y264098D01*
X362266Y264071D01*
X362280Y264048D01*
X362332Y263994D01*
X362438Y263868D01*
X363641Y262665D01*
X363641Y250560D01*
X362152Y249072D01*
X355262Y249072D01*
X355093Y249054D01*
X354925Y249039D01*
X354907Y249034D01*
X354888Y249032D01*
X354727Y248979D01*
X354565Y248929D01*
X354548Y248920D01*
X354530Y248914D01*
X354384Y248828D01*
X354236Y248746D01*
X354220Y248732D01*
X354205Y248723D01*
X354157Y248679D01*
X354006Y248551D01*
X344818Y239364D01*
X344712Y239232D01*
X344603Y239103D01*
X344594Y239086D01*
X344582Y239071D01*
X344505Y238920D01*
X344426Y238770D01*
X344421Y238752D01*
X344412Y238735D01*
X344370Y238571D01*
X344323Y238408D01*
X344322Y238386D01*
X344317Y238370D01*
X344315Y238304D01*
X344298Y238107D01*
X344298Y175493D01*
X344310Y175381D01*
X344312Y175267D01*
X344330Y175194D01*
X344338Y175119D01*
X344373Y175011D01*
X344399Y174901D01*
X344432Y174833D01*
X344456Y174761D01*
X344513Y174663D01*
X344562Y174561D01*
X344608Y174502D01*
X344646Y174436D01*
X344723Y174353D01*
X344792Y174263D01*
X344850Y174215D01*
X344901Y174159D01*
X344993Y174094D01*
X345080Y174021D01*
X345146Y173985D01*
X345208Y173941D01*
X345312Y173897D01*
X345412Y173844D01*
X345485Y173823D01*
X345555Y173794D01*
X345666Y173772D01*
X345774Y173741D01*
X345865Y173734D01*
X345924Y173722D01*
X345985Y173723D01*
X346075Y173716D01*
X355152Y173716D01*
X356641Y172227D01*
X356641Y161274D01*
X356653Y161162D01*
X356655Y161048D01*
X356673Y160975D01*
X356681Y160900D01*
X356716Y160792D01*
X356742Y160682D01*
X356775Y160614D01*
X356798Y160542D01*
X356856Y160444D01*
X356905Y160342D01*
X356951Y160283D01*
X356989Y160217D01*
X357066Y160134D01*
X357135Y160044D01*
X357193Y159996D01*
X357244Y159940D01*
X357336Y159875D01*
X357423Y159802D01*
X357489Y159766D01*
X357551Y159723D01*
X357655Y159678D01*
X357755Y159625D01*
X357828Y159604D01*
X357897Y159575D01*
X358009Y159553D01*
X358117Y159522D01*
X358208Y159515D01*
X358267Y159503D01*
X358328Y159505D01*
X358418Y159497D01*
X438403Y159497D01*
X438572Y159515D01*
X438740Y159529D01*
X438759Y159535D01*
X438777Y159537D01*
X438939Y159590D01*
X439100Y159639D01*
X439117Y159649D01*
X439135Y159655D01*
X439282Y159741D01*
X439429Y159823D01*
X439445Y159837D01*
X439460Y159845D01*
X439509Y159890D01*
X439660Y160017D01*
X465866Y186224D01*
X467453Y186881D01*
X496817Y186881D01*
X496874Y186887D01*
X496930Y186885D01*
X497060Y186907D01*
X497192Y186921D01*
X497246Y186939D01*
X497301Y186948D01*
X497424Y186998D01*
X497549Y187039D01*
X497598Y187068D01*
X497651Y187089D01*
X497760Y187163D01*
X497874Y187230D01*
X497916Y187268D01*
X497963Y187300D01*
X498054Y187395D01*
X498151Y187484D01*
X498184Y187530D01*
X498223Y187572D01*
X498293Y187684D01*
X498369Y187792D01*
X498391Y187844D01*
X498421Y187892D01*
X498465Y188017D01*
X498517Y188138D01*
X498527Y188194D01*
X498546Y188247D01*
X498563Y188378D01*
X498588Y188508D01*
X498587Y188564D01*
X498594Y188621D01*
X498583Y188752D01*
X498580Y188884D01*
X498567Y188939D01*
X498562Y188996D01*
X498523Y189122D01*
X498493Y189250D01*
X498469Y189301D01*
X498452Y189356D01*
X498387Y189471D01*
X498331Y189590D01*
X498296Y189635D01*
X498268Y189685D01*
X498141Y189836D01*
X498100Y189888D01*
X498088Y189899D01*
X498074Y189915D01*
X497585Y190404D01*
X497585Y191925D01*
X497573Y192037D01*
X497571Y192151D01*
X497553Y192224D01*
X497545Y192299D01*
X497510Y192407D01*
X497484Y192517D01*
X497451Y192585D01*
X497428Y192657D01*
X497370Y192755D01*
X497321Y192857D01*
X497275Y192916D01*
X497237Y192982D01*
X497160Y193065D01*
X497091Y193155D01*
X497033Y193203D01*
X496982Y193259D01*
X496890Y193324D01*
X496803Y193397D01*
X496737Y193433D01*
X496675Y193477D01*
X496571Y193521D01*
X496471Y193574D01*
X496398Y193595D01*
X496329Y193624D01*
X496217Y193646D01*
X496109Y193677D01*
X496018Y193684D01*
X495959Y193696D01*
X495898Y193695D01*
X495808Y193702D01*
X494042Y193702D01*
X491719Y194665D01*
X489940Y196444D01*
X488977Y198767D01*
X488977Y201283D01*
X489940Y203606D01*
X491719Y205385D01*
X494042Y206348D01*
X496558Y206348D01*
X497659Y205891D01*
X497795Y205851D01*
X497928Y205804D01*
X497975Y205798D01*
X498020Y205785D01*
X498161Y205774D01*
X498302Y205757D01*
X498349Y205761D01*
X498396Y205757D01*
X498536Y205776D01*
X498677Y205788D01*
X498722Y205802D01*
X498769Y205809D01*
X498901Y205857D01*
X499037Y205899D01*
X499078Y205922D01*
X499123Y205938D01*
X499242Y206013D01*
X499365Y206082D01*
X499407Y206117D01*
X499441Y206139D01*
X499494Y206191D01*
X499596Y206277D01*
X501385Y208066D01*
X513490Y208066D01*
X514681Y206875D01*
X514769Y206804D01*
X514851Y206725D01*
X514915Y206686D01*
X514974Y206638D01*
X515075Y206587D01*
X515171Y206528D01*
X515242Y206503D01*
X515310Y206469D01*
X515420Y206440D01*
X515526Y206403D01*
X515601Y206393D01*
X515674Y206374D01*
X515787Y206369D01*
X515900Y206355D01*
X515975Y206361D01*
X516051Y206358D01*
X516162Y206377D01*
X516275Y206387D01*
X516347Y206409D01*
X516422Y206422D01*
X516527Y206464D01*
X516635Y206497D01*
X516701Y206534D01*
X516771Y206562D01*
X516865Y206625D01*
X516964Y206680D01*
X517033Y206739D01*
X517083Y206773D01*
X517125Y206816D01*
X517194Y206875D01*
X518385Y208066D01*
X530490Y208066D01*
X531978Y206577D01*
X531978Y193473D01*
X531056Y192550D01*
X530985Y192462D01*
X530907Y192381D01*
X530867Y192316D01*
X530820Y192257D01*
X530769Y192156D01*
X530709Y192060D01*
X530684Y191989D01*
X530650Y191921D01*
X530621Y191812D01*
X530584Y191705D01*
X530574Y191630D01*
X530555Y191557D01*
X530550Y191444D01*
X530536Y191332D01*
X530542Y191256D01*
X530539Y191181D01*
X530558Y191069D01*
X530568Y190956D01*
X530590Y190884D01*
X530603Y190810D01*
X530645Y190704D01*
X530678Y190596D01*
X530715Y190530D01*
X530743Y190460D01*
X530807Y190366D01*
X530862Y190268D01*
X530920Y190198D01*
X530954Y190148D01*
X530998Y190106D01*
X531056Y190037D01*
X531978Y189115D01*
X531978Y176010D01*
X530490Y174522D01*
X530279Y174522D01*
X530167Y174510D01*
X530054Y174507D01*
X529980Y174490D01*
X529905Y174482D01*
X529797Y174446D01*
X529688Y174420D01*
X529619Y174388D01*
X529547Y174364D01*
X529450Y174307D01*
X529348Y174258D01*
X529288Y174212D01*
X529223Y174173D01*
X529139Y174097D01*
X529050Y174028D01*
X529001Y173970D01*
X528945Y173919D01*
X528880Y173826D01*
X528807Y173740D01*
X528772Y173673D01*
X528728Y173611D01*
X528684Y173507D01*
X528630Y173407D01*
X528610Y173334D01*
X528580Y173265D01*
X528559Y173154D01*
X528528Y173045D01*
X528520Y172955D01*
X528509Y172895D01*
X528510Y172835D01*
X528502Y172745D01*
X528502Y151951D01*
X528520Y151783D01*
X528535Y151614D01*
X528540Y151596D01*
X528542Y151577D01*
X528595Y151415D01*
X528645Y151254D01*
X528654Y151237D01*
X528660Y151219D01*
X528746Y151073D01*
X528828Y150925D01*
X528842Y150909D01*
X528851Y150895D01*
X528895Y150846D01*
X529023Y150695D01*
X529590Y150127D01*
X532194Y147523D01*
X532194Y145057D01*
X532209Y144916D01*
X532217Y144775D01*
X532229Y144730D01*
X532234Y144682D01*
X532278Y144548D01*
X532315Y144412D01*
X532337Y144370D01*
X532352Y144325D01*
X532424Y144203D01*
X532488Y144077D01*
X532519Y144041D01*
X532543Y144000D01*
X532638Y143896D01*
X532728Y143787D01*
X532765Y143757D01*
X532797Y143723D01*
X532913Y143641D01*
X533024Y143553D01*
X533072Y143528D01*
X533105Y143505D01*
X533173Y143476D01*
X533291Y143415D01*
X536988Y141884D01*
X540346Y138525D01*
X542164Y134137D01*
X542164Y129388D01*
X540346Y125000D01*
X536988Y121641D01*
X534726Y120704D01*
X534676Y120677D01*
X534623Y120658D01*
X534511Y120588D01*
X534395Y120524D01*
X534352Y120487D01*
X534304Y120457D01*
X534210Y120365D01*
X534110Y120279D01*
X534076Y120233D01*
X534035Y120194D01*
X533962Y120083D01*
X533883Y119978D01*
X533859Y119927D01*
X533828Y119879D01*
X533780Y119757D01*
X533724Y119637D01*
X533712Y119581D01*
X533691Y119529D01*
X533670Y119398D01*
X533641Y119270D01*
X533640Y119213D01*
X533631Y119157D01*
X533638Y119025D01*
X533637Y118893D01*
X533648Y118837D01*
X533651Y118781D01*
X533686Y118654D01*
X533712Y118524D01*
X533735Y118472D01*
X533750Y118417D01*
X533811Y118300D01*
X533864Y118179D01*
X533897Y118134D01*
X533923Y118083D01*
X534007Y117981D01*
X534084Y117874D01*
X534126Y117836D01*
X534163Y117793D01*
X534266Y117711D01*
X534364Y117623D01*
X534414Y117594D01*
X534458Y117559D01*
X534634Y117468D01*
X534691Y117435D01*
X534707Y117430D01*
X534726Y117421D01*
X536988Y116484D01*
X540346Y113125D01*
X542164Y108737D01*
X542164Y103988D01*
X540333Y99567D01*
X540305Y99538D01*
X540265Y99474D01*
X540218Y99415D01*
X540167Y99314D01*
X540107Y99218D01*
X540082Y99146D01*
X540048Y99079D01*
X540020Y98969D01*
X539982Y98863D01*
X539972Y98788D01*
X539953Y98715D01*
X539949Y98601D01*
X539934Y98489D01*
X539941Y98414D01*
X539937Y98338D01*
X539956Y98227D01*
X539966Y98114D01*
X539988Y98042D01*
X540001Y97967D01*
X540043Y97862D01*
X540076Y97754D01*
X540113Y97688D01*
X540132Y97641D01*
X540132Y90602D01*
X539921Y90391D01*
X539814Y90259D01*
X539706Y90130D01*
X539697Y90113D01*
X539685Y90098D01*
X539608Y89947D01*
X539529Y89797D01*
X539524Y89779D01*
X539515Y89762D01*
X539472Y89598D01*
X539426Y89435D01*
X539424Y89414D01*
X539420Y89398D01*
X539417Y89332D01*
X539401Y89135D01*
X539401Y84860D01*
X539413Y84747D01*
X539415Y84634D01*
X539433Y84561D01*
X539441Y84485D01*
X539476Y84378D01*
X539502Y84268D01*
X539535Y84200D01*
X539557Y84131D01*
X539529Y84078D01*
X539508Y84005D01*
X539479Y83936D01*
X539457Y83825D01*
X539426Y83716D01*
X539419Y83626D01*
X539407Y83566D01*
X539408Y83506D01*
X539401Y83415D01*
X539401Y65810D01*
X539413Y65697D01*
X539415Y65584D01*
X539433Y65511D01*
X539441Y65435D01*
X539476Y65328D01*
X539502Y65218D01*
X539535Y65150D01*
X539558Y65078D01*
X539616Y64980D01*
X539665Y64878D01*
X539711Y64818D01*
X539749Y64753D01*
X539826Y64670D01*
X539895Y64580D01*
X539953Y64531D01*
X540004Y64476D01*
X540096Y64410D01*
X540183Y64337D01*
X540249Y64302D01*
X540311Y64258D01*
X540415Y64214D01*
X540515Y64161D01*
X540588Y64140D01*
X540657Y64110D01*
X540768Y64089D01*
X540877Y64058D01*
X540878Y64058D01*
X540885Y63991D01*
X540920Y63883D01*
X540946Y63773D01*
X540979Y63705D01*
X541003Y63633D01*
X541060Y63536D01*
X541109Y63434D01*
X541155Y63374D01*
X541193Y63309D01*
X541270Y63225D01*
X541339Y63136D01*
X541397Y63087D01*
X541448Y63031D01*
X541540Y62966D01*
X541627Y62893D01*
X541694Y62858D01*
X541755Y62814D01*
X541859Y62770D01*
X541959Y62716D01*
X542032Y62696D01*
X542102Y62666D01*
X542213Y62645D01*
X542322Y62614D01*
X542412Y62606D01*
X542471Y62595D01*
X542532Y62596D01*
X542622Y62588D01*
X549441Y62588D01*
X549441Y59253D01*
X549268Y58607D01*
X548933Y58028D01*
X548460Y57554D01*
X547940Y57254D01*
X547813Y57162D01*
X547683Y57074D01*
X547661Y57051D01*
X547636Y57033D01*
X547531Y56915D01*
X547423Y56802D01*
X547406Y56775D01*
X547385Y56752D01*
X547307Y56615D01*
X547225Y56481D01*
X547215Y56452D01*
X547199Y56424D01*
X547152Y56274D01*
X547100Y56126D01*
X547096Y56095D01*
X547086Y56065D01*
X547072Y55909D01*
X547052Y55753D01*
X547055Y55721D01*
X547052Y55690D01*
X547071Y55534D01*
X547084Y55378D01*
X547093Y55348D01*
X547097Y55316D01*
X547148Y55168D01*
X547194Y55018D01*
X547210Y54990D01*
X547220Y54960D01*
X547301Y54826D01*
X547378Y54689D01*
X547401Y54662D01*
X547415Y54638D01*
X547466Y54584D01*
X547572Y54458D01*
X549441Y52590D01*
X549441Y39485D01*
X547501Y37546D01*
X547395Y37414D01*
X547286Y37284D01*
X547277Y37268D01*
X547265Y37253D01*
X547188Y37101D01*
X547109Y36952D01*
X547104Y36933D01*
X547095Y36916D01*
X547052Y36752D01*
X547006Y36589D01*
X547005Y36568D01*
X547000Y36552D01*
X546998Y36486D01*
X546981Y36289D01*
X546981Y36064D01*
X546207Y34197D01*
X532878Y20868D01*
X531011Y20094D01*
X518418Y20094D01*
X518306Y20082D01*
X518192Y20080D01*
X518119Y20062D01*
X518044Y20054D01*
X517936Y20019D01*
X517826Y19993D01*
X517758Y19960D01*
X517686Y19937D01*
X517588Y19879D01*
X517486Y19830D01*
X517427Y19784D01*
X517361Y19746D01*
X517278Y19669D01*
X517188Y19600D01*
X517140Y19542D01*
X517084Y19491D01*
X517019Y19399D01*
X516946Y19312D01*
X516910Y19246D01*
X516866Y19184D01*
X516822Y19080D01*
X516769Y18980D01*
X516748Y18907D01*
X516719Y18838D01*
X516697Y18726D01*
X516666Y18618D01*
X516659Y18527D01*
X516647Y18468D01*
X516648Y18407D01*
X516641Y18317D01*
X516641Y18123D01*
X515152Y16634D01*
X483048Y16634D01*
X481632Y18050D01*
X481500Y18156D01*
X481371Y18265D01*
X481354Y18274D01*
X481339Y18286D01*
X481188Y18363D01*
X481038Y18442D01*
X481020Y18447D01*
X481003Y18456D01*
X480839Y18499D01*
X480676Y18545D01*
X480655Y18546D01*
X480639Y18551D01*
X480573Y18553D01*
X480375Y18570D01*
X475161Y18570D01*
X472734Y19576D01*
X470876Y21434D01*
X469870Y23861D01*
X469870Y26520D01*
X470890Y28981D01*
X472669Y30760D01*
X475130Y31780D01*
X480375Y31780D01*
X480544Y31798D01*
X480713Y31812D01*
X480731Y31818D01*
X480750Y31820D01*
X480911Y31873D01*
X481073Y31922D01*
X481089Y31932D01*
X481107Y31937D01*
X481254Y32023D01*
X481402Y32106D01*
X481418Y32120D01*
X481432Y32128D01*
X481481Y32173D01*
X481632Y32300D01*
X481698Y32366D01*
X481804Y32498D01*
X481913Y32627D01*
X481922Y32644D01*
X481934Y32659D01*
X482011Y32810D01*
X482090Y32960D01*
X482095Y32978D01*
X482104Y32995D01*
X482147Y33159D01*
X482193Y33322D01*
X482194Y33343D01*
X482199Y33359D01*
X482201Y33425D01*
X482218Y33623D01*
X482218Y36727D01*
X482200Y36896D01*
X482186Y37065D01*
X482180Y37083D01*
X482178Y37102D01*
X482125Y37263D01*
X482076Y37425D01*
X482066Y37441D01*
X482061Y37459D01*
X481975Y37606D01*
X481892Y37754D01*
X481878Y37770D01*
X481870Y37784D01*
X481825Y37833D01*
X481698Y37984D01*
X481559Y38123D01*
X481559Y52227D01*
X481698Y52366D01*
X481804Y52498D01*
X481913Y52627D01*
X481922Y52644D01*
X481934Y52659D01*
X482010Y52810D01*
X482090Y52960D01*
X482095Y52978D01*
X482104Y52995D01*
X482146Y53159D01*
X482193Y53322D01*
X482194Y53343D01*
X482199Y53359D01*
X482201Y53426D01*
X482218Y53623D01*
X482218Y56727D01*
X482200Y56896D01*
X482186Y57065D01*
X482180Y57083D01*
X482178Y57102D01*
X482125Y57263D01*
X482076Y57425D01*
X482066Y57441D01*
X482061Y57459D01*
X481975Y57606D01*
X481892Y57754D01*
X481878Y57770D01*
X481870Y57784D01*
X481825Y57833D01*
X481698Y57984D01*
X481559Y58123D01*
X481559Y72227D01*
X481698Y72366D01*
X481804Y72498D01*
X481913Y72627D01*
X481922Y72644D01*
X481934Y72659D01*
X482010Y72810D01*
X482090Y72960D01*
X482095Y72978D01*
X482104Y72995D01*
X482146Y73159D01*
X482193Y73322D01*
X482194Y73343D01*
X482199Y73359D01*
X482201Y73426D01*
X482218Y73623D01*
X482218Y76727D01*
X482200Y76896D01*
X482186Y77065D01*
X482180Y77083D01*
X482178Y77102D01*
X482125Y77263D01*
X482076Y77425D01*
X482066Y77441D01*
X482061Y77459D01*
X481975Y77606D01*
X481892Y77754D01*
X481878Y77770D01*
X481870Y77784D01*
X481825Y77833D01*
X481698Y77984D01*
X481559Y78123D01*
X481559Y92227D01*
X481698Y92366D01*
X481804Y92498D01*
X481913Y92627D01*
X481922Y92644D01*
X481934Y92659D01*
X482010Y92810D01*
X482090Y92960D01*
X482095Y92978D01*
X482104Y92995D01*
X482146Y93159D01*
X482193Y93322D01*
X482194Y93343D01*
X482199Y93359D01*
X482201Y93426D01*
X482218Y93623D01*
X482218Y96727D01*
X482200Y96896D01*
X482186Y97065D01*
X482180Y97083D01*
X482178Y97102D01*
X482125Y97263D01*
X482076Y97425D01*
X482066Y97441D01*
X482061Y97459D01*
X481975Y97606D01*
X481892Y97754D01*
X481878Y97770D01*
X481870Y97784D01*
X481825Y97833D01*
X481698Y97984D01*
X481559Y98123D01*
X481559Y112227D01*
X481698Y112366D01*
X481804Y112498D01*
X481913Y112627D01*
X481922Y112644D01*
X481934Y112659D01*
X482011Y112810D01*
X482090Y112960D01*
X482095Y112978D01*
X482104Y112995D01*
X482147Y113159D01*
X482193Y113322D01*
X482194Y113343D01*
X482199Y113359D01*
X482201Y113425D01*
X482218Y113623D01*
X482218Y116727D01*
X482200Y116896D01*
X482186Y117065D01*
X482180Y117083D01*
X482178Y117102D01*
X482125Y117263D01*
X482076Y117425D01*
X482066Y117441D01*
X482061Y117459D01*
X481975Y117606D01*
X481892Y117754D01*
X481878Y117770D01*
X481870Y117784D01*
X481825Y117833D01*
X481698Y117984D01*
X481559Y118123D01*
X481559Y132227D01*
X481698Y132366D01*
X481804Y132498D01*
X481913Y132627D01*
X481922Y132644D01*
X481934Y132659D01*
X482010Y132809D01*
X482090Y132960D01*
X482095Y132978D01*
X482104Y132995D01*
X482146Y133159D01*
X482193Y133322D01*
X482194Y133343D01*
X482199Y133359D01*
X482201Y133426D01*
X482218Y133623D01*
X482218Y136727D01*
X482200Y136896D01*
X482186Y137065D01*
X482180Y137083D01*
X482178Y137102D01*
X482125Y137263D01*
X482076Y137425D01*
X482066Y137441D01*
X482061Y137459D01*
X481975Y137606D01*
X481892Y137754D01*
X481878Y137770D01*
X481870Y137784D01*
X481825Y137833D01*
X481698Y137984D01*
X481559Y138123D01*
X481559Y152227D01*
X481698Y152366D01*
X481804Y152498D01*
X481913Y152627D01*
X481922Y152644D01*
X481934Y152659D01*
X482011Y152810D01*
X482090Y152960D01*
X482095Y152978D01*
X482104Y152995D01*
X482147Y153159D01*
X482193Y153322D01*
X482194Y153343D01*
X482199Y153359D01*
X482201Y153425D01*
X482218Y153623D01*
X482218Y156727D01*
X482200Y156896D01*
X482186Y157065D01*
X482180Y157083D01*
X482178Y157102D01*
X482125Y157263D01*
X482076Y157425D01*
X482066Y157441D01*
X482061Y157459D01*
X481975Y157606D01*
X481892Y157754D01*
X481878Y157770D01*
X481870Y157784D01*
X481825Y157833D01*
X481698Y157984D01*
X481559Y158123D01*
X481559Y158424D01*
X481553Y158480D01*
X481556Y158537D01*
X481533Y158667D01*
X481519Y158798D01*
X481502Y158852D01*
X481492Y158908D01*
X481443Y159030D01*
X481402Y159156D01*
X481373Y159204D01*
X481352Y159257D01*
X481278Y159366D01*
X481211Y159480D01*
X481173Y159522D01*
X481141Y159569D01*
X481046Y159660D01*
X480956Y159758D01*
X480910Y159790D01*
X480869Y159830D01*
X480757Y159899D01*
X480649Y159975D01*
X480597Y159997D01*
X480548Y160027D01*
X480424Y160071D01*
X480303Y160123D01*
X480247Y160134D01*
X480193Y160153D01*
X480062Y160169D01*
X479933Y160194D01*
X479876Y160193D01*
X479820Y160200D01*
X479688Y160189D01*
X479556Y160186D01*
X479501Y160173D01*
X479445Y160168D01*
X479318Y160130D01*
X479190Y160099D01*
X479139Y160075D01*
X479085Y160058D01*
X478969Y159994D01*
X478850Y159937D01*
X478805Y159902D01*
X478756Y159875D01*
X478605Y159747D01*
X478552Y159707D01*
X478542Y159694D01*
X478525Y159680D01*
X451983Y133138D01*
X450518Y131673D01*
X448931Y131016D01*
X358418Y131016D01*
X358306Y131004D01*
X358192Y131001D01*
X358119Y130984D01*
X358044Y130976D01*
X357936Y130940D01*
X357826Y130914D01*
X357758Y130882D01*
X357686Y130858D01*
X357588Y130801D01*
X357486Y130752D01*
X357427Y130706D01*
X357361Y130667D01*
X357278Y130591D01*
X357188Y130522D01*
X357140Y130464D01*
X357084Y130413D01*
X357019Y130320D01*
X356946Y130234D01*
X356910Y130167D01*
X356866Y130105D01*
X356822Y130001D01*
X356769Y129901D01*
X356748Y129828D01*
X356719Y129759D01*
X356697Y129648D01*
X356666Y129539D01*
X356659Y129449D01*
X356647Y129389D01*
X356648Y129329D01*
X356641Y129238D01*
X356641Y128174D01*
X340322Y128174D01*
X340210Y128162D01*
X340097Y128160D01*
X340023Y128142D01*
X339948Y128134D01*
X339840Y128099D01*
X339730Y128073D01*
X339662Y128040D01*
X339590Y128017D01*
X339492Y127959D01*
X339390Y127910D01*
X339331Y127864D01*
X339265Y127826D01*
X339182Y127749D01*
X339096Y127683D01*
X339052Y127731D01*
X338960Y127796D01*
X338873Y127869D01*
X338806Y127905D01*
X338745Y127949D01*
X338641Y127993D01*
X338541Y128046D01*
X338468Y128067D01*
X338398Y128096D01*
X338287Y128118D01*
X338178Y128149D01*
X338088Y128156D01*
X338029Y128168D01*
X337968Y128167D01*
X337878Y128174D01*
X321108Y128174D01*
X321065Y128230D01*
X321007Y128278D01*
X320956Y128334D01*
X320864Y128399D01*
X320777Y128472D01*
X320711Y128508D01*
X320649Y128552D01*
X320545Y128596D01*
X320445Y128649D01*
X320372Y128670D01*
X320303Y128699D01*
X320191Y128721D01*
X320083Y128752D01*
X319992Y128759D01*
X319933Y128771D01*
X319872Y128770D01*
X319782Y128777D01*
X317500Y128777D01*
X317388Y128765D01*
X317274Y128763D01*
X317201Y128745D01*
X317126Y128737D01*
X317018Y128702D01*
X316908Y128676D01*
X316840Y128643D01*
X316768Y128620D01*
X316670Y128562D01*
X316568Y128513D01*
X316509Y128467D01*
X316443Y128429D01*
X316360Y128352D01*
X316270Y128283D01*
X316222Y128225D01*
X316166Y128174D01*
X316101Y128082D01*
X316028Y127995D01*
X315992Y127929D01*
X315948Y127867D01*
X315904Y127763D01*
X315851Y127663D01*
X315830Y127590D01*
X315801Y127521D01*
X315779Y127409D01*
X315748Y127301D01*
X315741Y127210D01*
X315729Y127151D01*
X315730Y127090D01*
X315723Y127000D01*
X315723Y39877D01*
X298056Y39877D01*
X297887Y39859D01*
X297719Y39845D01*
X297700Y39839D01*
X297681Y39837D01*
X297520Y39784D01*
X297359Y39735D01*
X297342Y39725D01*
X297324Y39720D01*
X297177Y39634D01*
X297030Y39551D01*
X297014Y39537D01*
X296999Y39529D01*
X296950Y39484D01*
X296799Y39357D01*
X289700Y32258D01*
X289594Y32126D01*
X289485Y31996D01*
X289476Y31980D01*
X289464Y31965D01*
X289387Y31813D01*
X289308Y31664D01*
X289303Y31646D01*
X289294Y31629D01*
X289252Y31465D01*
X289205Y31302D01*
X289204Y31280D01*
X289199Y31264D01*
X289197Y31198D01*
X289180Y31001D01*
X289180Y30436D01*
X288174Y28009D01*
X286316Y26151D01*
X283889Y25145D01*
X279793Y25145D01*
X279681Y25133D01*
X279567Y25131D01*
X279494Y25113D01*
X279419Y25105D01*
X279311Y25070D01*
X279201Y25044D01*
X279133Y25011D01*
X279061Y24988D01*
X278963Y24930D01*
X278861Y24881D01*
X278802Y24835D01*
X278736Y24797D01*
X278653Y24720D01*
X278563Y24651D01*
X278515Y24593D01*
X278459Y24542D01*
X278394Y24450D01*
X278321Y24363D01*
X278285Y24297D01*
X278241Y24235D01*
X278197Y24131D01*
X278144Y24031D01*
X278123Y23958D01*
X278094Y23889D01*
X278072Y23777D01*
X278041Y23669D01*
X278034Y23578D01*
X278022Y23519D01*
X278023Y23458D01*
X278016Y23368D01*
X278016Y22698D01*
X276527Y21209D01*
X248423Y21209D01*
X246934Y22698D01*
X246934Y38100D01*
X246922Y38212D01*
X246920Y38326D01*
X246902Y38399D01*
X246894Y38474D01*
X246859Y38582D01*
X246833Y38692D01*
X246800Y38760D01*
X246777Y38832D01*
X246719Y38930D01*
X246670Y39032D01*
X246624Y39091D01*
X246586Y39157D01*
X246509Y39240D01*
X246440Y39330D01*
X246382Y39378D01*
X246331Y39434D01*
X246239Y39499D01*
X246152Y39572D01*
X246086Y39608D01*
X246024Y39652D01*
X245920Y39696D01*
X245820Y39749D01*
X245747Y39770D01*
X245678Y39799D01*
X245566Y39821D01*
X245458Y39852D01*
X245367Y39859D01*
X245308Y39871D01*
X245247Y39870D01*
X245157Y39877D01*
X243793Y39877D01*
X243681Y39865D01*
X243567Y39863D01*
X243494Y39845D01*
X243419Y39837D01*
X243311Y39802D01*
X243201Y39776D01*
X243133Y39743D01*
X243061Y39720D01*
X242963Y39662D01*
X242861Y39613D01*
X242802Y39567D01*
X242736Y39529D01*
X242653Y39452D01*
X242563Y39383D01*
X242515Y39325D01*
X242459Y39274D01*
X242394Y39182D01*
X242321Y39095D01*
X242285Y39029D01*
X242241Y38967D01*
X242197Y38863D01*
X242144Y38763D01*
X242123Y38690D01*
X242094Y38621D01*
X242072Y38509D01*
X242041Y38401D01*
X242034Y38310D01*
X242022Y38251D01*
X242023Y38190D01*
X242016Y38100D01*
X242016Y35305D01*
X228253Y35305D01*
X228141Y35293D01*
X228027Y35291D01*
X227954Y35273D01*
X227879Y35265D01*
X227771Y35230D01*
X227661Y35204D01*
X227593Y35171D01*
X227521Y35147D01*
X227423Y35090D01*
X227321Y35041D01*
X227262Y34995D01*
X227196Y34957D01*
X227113Y34880D01*
X227023Y34811D01*
X226975Y34753D01*
X226919Y34702D01*
X226854Y34610D01*
X226781Y34523D01*
X226745Y34456D01*
X226702Y34395D01*
X226657Y34291D01*
X226604Y34191D01*
X226583Y34118D01*
X226554Y34048D01*
X226532Y33937D01*
X226501Y33828D01*
X226494Y33738D01*
X226482Y33679D01*
X226484Y33618D01*
X226476Y33528D01*
X226476Y31749D01*
X224697Y31749D01*
X224585Y31737D01*
X224471Y31735D01*
X224398Y31717D01*
X224323Y31709D01*
X224215Y31674D01*
X224105Y31648D01*
X224037Y31615D01*
X223965Y31591D01*
X223867Y31534D01*
X223765Y31485D01*
X223706Y31439D01*
X223640Y31401D01*
X223557Y31324D01*
X223467Y31255D01*
X223419Y31197D01*
X223363Y31146D01*
X223298Y31054D01*
X223225Y30967D01*
X223189Y30900D01*
X223146Y30839D01*
X223101Y30735D01*
X223048Y30635D01*
X223027Y30562D01*
X222998Y30492D01*
X222976Y30381D01*
X222945Y30272D01*
X222938Y30182D01*
X222926Y30123D01*
X222927Y30062D01*
X222920Y29972D01*
X222920Y21209D01*
X213140Y21209D01*
X212494Y21382D01*
X211915Y21717D01*
X211839Y21793D01*
X211716Y21892D01*
X211598Y21994D01*
X211571Y22010D01*
X211546Y22030D01*
X211406Y22100D01*
X211268Y22176D01*
X211238Y22185D01*
X211210Y22199D01*
X211058Y22239D01*
X210907Y22284D01*
X210876Y22286D01*
X210845Y22294D01*
X210688Y22301D01*
X210532Y22313D01*
X210501Y22309D01*
X210469Y22310D01*
X210314Y22283D01*
X210159Y22262D01*
X210129Y22252D01*
X210098Y22246D01*
X209952Y22188D01*
X209805Y22134D01*
X209778Y22118D01*
X209749Y22106D01*
X209618Y22018D01*
X209485Y21935D01*
X209463Y21913D01*
X209437Y21895D01*
X209328Y21782D01*
X209215Y21672D01*
X209195Y21643D01*
X209176Y21623D01*
X209137Y21560D01*
X209043Y21425D01*
X208633Y20715D01*
X208160Y20242D01*
X207581Y19907D01*
X206935Y19734D01*
X200155Y19734D01*
X200155Y39497D01*
X200143Y39609D01*
X200141Y39723D01*
X200123Y39796D01*
X200115Y39871D01*
X200080Y39979D01*
X200054Y40089D01*
X200021Y40157D01*
X199997Y40229D01*
X199940Y40327D01*
X199891Y40429D01*
X199845Y40488D01*
X199807Y40554D01*
X199730Y40637D01*
X199661Y40727D01*
X199603Y40775D01*
X199552Y40831D01*
X199460Y40896D01*
X199373Y40969D01*
X199306Y41005D01*
X199245Y41048D01*
X199141Y41093D01*
X199041Y41146D01*
X198968Y41167D01*
X198898Y41196D01*
X198787Y41218D01*
X198678Y41249D01*
X198588Y41256D01*
X198529Y41268D01*
X198468Y41266D01*
X198378Y41274D01*
X196599Y41274D01*
X196599Y41276D01*
X198378Y41276D01*
X198490Y41288D01*
X198604Y41290D01*
X198677Y41308D01*
X198752Y41316D01*
X198860Y41351D01*
X198970Y41377D01*
X199038Y41410D01*
X199110Y41434D01*
X199208Y41491D01*
X199310Y41540D01*
X199369Y41586D01*
X199435Y41624D01*
X199518Y41701D01*
X199608Y41770D01*
X199656Y41828D01*
X199712Y41879D01*
X199777Y41971D01*
X199850Y42058D01*
X199886Y42125D01*
X199929Y42186D01*
X199974Y42290D01*
X200027Y42390D01*
X200048Y42463D01*
X200077Y42533D01*
X200099Y42644D01*
X200130Y42753D01*
X200137Y42843D01*
X200149Y42902D01*
X200148Y42945D01*
X200149Y42949D01*
X200148Y42972D01*
X200155Y43053D01*
X200155Y63641D01*
X200168Y63664D01*
X200211Y63726D01*
X200256Y63830D01*
X200309Y63930D01*
X200329Y64003D01*
X200359Y64072D01*
X200381Y64184D01*
X200411Y64292D01*
X200419Y64383D01*
X200431Y64442D01*
X200429Y64503D01*
X200437Y64593D01*
X200437Y66675D01*
X200425Y66787D01*
X200423Y66901D01*
X200405Y66974D01*
X200397Y67049D01*
X200362Y67157D01*
X200336Y67267D01*
X200303Y67335D01*
X200279Y67407D01*
X200222Y67505D01*
X200173Y67607D01*
X200127Y67666D01*
X200089Y67732D01*
X200012Y67815D01*
X199943Y67905D01*
X199885Y67953D01*
X199834Y68009D01*
X199742Y68074D01*
X199655Y68147D01*
X199588Y68183D01*
X199527Y68227D01*
X199423Y68271D01*
X199323Y68324D01*
X199250Y68345D01*
X199180Y68374D01*
X199069Y68396D01*
X198960Y68427D01*
X198870Y68434D01*
X198811Y68446D01*
X198750Y68445D01*
X198660Y68452D01*
X169863Y68452D01*
X169750Y68440D01*
X169637Y68438D01*
X169563Y68420D01*
X169488Y68412D01*
X169380Y68377D01*
X169271Y68351D01*
X169202Y68318D01*
X169130Y68295D01*
X169033Y68237D01*
X168931Y68188D01*
X168871Y68142D01*
X168806Y68104D01*
X168722Y68027D01*
X168633Y67958D01*
X168584Y67900D01*
X168528Y67849D01*
X168463Y67757D01*
X168390Y67670D01*
X168355Y67604D01*
X168311Y67542D01*
X168267Y67438D01*
X168213Y67338D01*
X168193Y67265D01*
X168163Y67196D01*
X168142Y67084D01*
X168111Y66976D01*
X168103Y66885D01*
X168092Y66826D01*
X168093Y66765D01*
X168085Y66675D01*
X168085Y5778D01*
X168097Y5666D01*
X168100Y5552D01*
X168117Y5479D01*
X168125Y5404D01*
X168161Y5296D01*
X168187Y5186D01*
X168219Y5118D01*
X168243Y5046D01*
X168300Y4948D01*
X168349Y4846D01*
X168395Y4787D01*
X168434Y4721D01*
X168510Y4638D01*
X168579Y4548D01*
X168637Y4500D01*
X168688Y4444D01*
X168781Y4379D01*
X168867Y4306D01*
X168934Y4270D01*
X168996Y4226D01*
X169100Y4182D01*
X169200Y4129D01*
X169273Y4108D01*
X169342Y4079D01*
X169453Y4057D01*
X169562Y4026D01*
X169652Y4019D01*
X169712Y4007D01*
X169772Y4008D01*
X169863Y4001D01*
X554222Y4001D01*
X554334Y4013D01*
G37*
G36*
X160423Y4013D02*
X160423Y4013D01*
X160544Y4017D01*
X160610Y4033D01*
X160678Y4041D01*
X160792Y4078D01*
X160909Y4107D01*
X160971Y4137D01*
X161036Y4158D01*
X161140Y4219D01*
X161248Y4272D01*
X161301Y4314D01*
X161360Y4349D01*
X161449Y4430D01*
X161544Y4505D01*
X161587Y4557D01*
X161638Y4604D01*
X161707Y4702D01*
X161784Y4795D01*
X161816Y4855D01*
X161855Y4911D01*
X161902Y5022D01*
X161958Y5129D01*
X161976Y5194D01*
X162003Y5257D01*
X162026Y5376D01*
X162058Y5492D01*
X162064Y5572D01*
X162075Y5627D01*
X162073Y5692D01*
X162081Y5792D01*
X161485Y79676D01*
X161467Y79838D01*
X161453Y79999D01*
X161445Y80024D01*
X161442Y80050D01*
X161390Y80203D01*
X161343Y80359D01*
X161330Y80382D01*
X161321Y80407D01*
X161238Y80546D01*
X161159Y80688D01*
X161140Y80711D01*
X161128Y80730D01*
X161079Y80783D01*
X160965Y80919D01*
X159740Y82143D01*
X158869Y84246D01*
X158801Y84370D01*
X158740Y84498D01*
X158711Y84535D01*
X158689Y84577D01*
X158597Y84684D01*
X158510Y84796D01*
X158474Y84826D01*
X158443Y84862D01*
X158330Y84947D01*
X158222Y85038D01*
X158180Y85061D01*
X158143Y85089D01*
X158015Y85149D01*
X157890Y85215D01*
X157844Y85228D01*
X157801Y85248D01*
X157663Y85279D01*
X157527Y85318D01*
X157473Y85322D01*
X157434Y85331D01*
X157360Y85332D01*
X157281Y85339D01*
X154319Y88301D01*
X154187Y88408D01*
X154057Y88517D01*
X154041Y88526D01*
X154026Y88538D01*
X153874Y88614D01*
X153725Y88694D01*
X153707Y88699D01*
X153690Y88707D01*
X153526Y88750D01*
X153363Y88796D01*
X153341Y88798D01*
X153325Y88802D01*
X153259Y88805D01*
X153062Y88822D01*
X151724Y88822D01*
X151724Y95640D01*
X151712Y95753D01*
X151710Y95866D01*
X151692Y95939D01*
X151684Y96015D01*
X151649Y96122D01*
X151623Y96232D01*
X151590Y96300D01*
X151567Y96372D01*
X151509Y96470D01*
X151460Y96572D01*
X151414Y96632D01*
X151376Y96697D01*
X151299Y96780D01*
X151230Y96870D01*
X151172Y96919D01*
X151121Y96974D01*
X151029Y97040D01*
X150942Y97113D01*
X150876Y97148D01*
X150814Y97192D01*
X150710Y97236D01*
X150610Y97289D01*
X150537Y97310D01*
X150468Y97340D01*
X150356Y97361D01*
X150248Y97392D01*
X150157Y97400D01*
X150098Y97411D01*
X150037Y97410D01*
X149947Y97418D01*
X148503Y97418D01*
X148390Y97406D01*
X148277Y97403D01*
X148204Y97386D01*
X148129Y97378D01*
X148021Y97342D01*
X147911Y97316D01*
X147843Y97284D01*
X147771Y97260D01*
X147673Y97202D01*
X147571Y97154D01*
X147511Y97108D01*
X147446Y97069D01*
X147363Y96993D01*
X147273Y96923D01*
X147225Y96866D01*
X147169Y96815D01*
X147104Y96722D01*
X147031Y96636D01*
X146995Y96569D01*
X146951Y96507D01*
X146907Y96403D01*
X146854Y96303D01*
X146833Y96230D01*
X146804Y96161D01*
X146782Y96050D01*
X146751Y95941D01*
X146744Y95851D01*
X146732Y95791D01*
X146733Y95731D01*
X146726Y95640D01*
X146726Y88822D01*
X143890Y88822D01*
X143244Y88995D01*
X142665Y89329D01*
X142107Y89888D01*
X142105Y89889D01*
X142061Y89950D01*
X141976Y90026D01*
X141898Y90109D01*
X141836Y90151D01*
X141780Y90201D01*
X141681Y90257D01*
X141588Y90322D01*
X141518Y90350D01*
X141453Y90387D01*
X141344Y90421D01*
X141239Y90465D01*
X141165Y90478D01*
X141094Y90500D01*
X140980Y90511D01*
X140869Y90531D01*
X140794Y90528D01*
X140719Y90535D01*
X140606Y90521D01*
X140492Y90517D01*
X140419Y90499D01*
X140345Y90490D01*
X140238Y90453D01*
X140127Y90425D01*
X140046Y90387D01*
X139989Y90367D01*
X139937Y90336D01*
X139854Y90297D01*
X139331Y89995D01*
X138685Y89822D01*
X135849Y89822D01*
X135849Y97140D01*
X135837Y97253D01*
X135835Y97366D01*
X135817Y97439D01*
X135809Y97515D01*
X135774Y97622D01*
X135748Y97732D01*
X135715Y97800D01*
X135692Y97872D01*
X135634Y97970D01*
X135585Y98072D01*
X135539Y98132D01*
X135501Y98197D01*
X135424Y98280D01*
X135355Y98370D01*
X135297Y98419D01*
X135246Y98474D01*
X135154Y98540D01*
X135067Y98613D01*
X135001Y98648D01*
X134939Y98692D01*
X134835Y98736D01*
X134735Y98789D01*
X134662Y98810D01*
X134593Y98840D01*
X134481Y98861D01*
X134373Y98892D01*
X134372Y98892D01*
X134365Y98959D01*
X134330Y99067D01*
X134304Y99176D01*
X134271Y99245D01*
X134247Y99317D01*
X134190Y99414D01*
X134141Y99516D01*
X134095Y99576D01*
X134057Y99641D01*
X133980Y99725D01*
X133911Y99814D01*
X133853Y99863D01*
X133802Y99919D01*
X133710Y99984D01*
X133623Y100057D01*
X133556Y100092D01*
X133495Y100136D01*
X133391Y100180D01*
X133291Y100234D01*
X133218Y100254D01*
X133148Y100284D01*
X133037Y100305D01*
X132928Y100336D01*
X132838Y100344D01*
X132779Y100355D01*
X132718Y100354D01*
X132628Y100362D01*
X127484Y100362D01*
X127315Y100344D01*
X127146Y100329D01*
X127128Y100324D01*
X127109Y100322D01*
X126948Y100269D01*
X126786Y100219D01*
X126770Y100210D01*
X126752Y100204D01*
X126606Y100118D01*
X126458Y100036D01*
X126441Y100022D01*
X126427Y100013D01*
X126378Y99969D01*
X126227Y99841D01*
X125509Y99123D01*
X121482Y99123D01*
X121313Y99105D01*
X121145Y99090D01*
X121127Y99085D01*
X121108Y99083D01*
X120947Y99030D01*
X120785Y98980D01*
X120768Y98971D01*
X120750Y98965D01*
X120604Y98879D01*
X120456Y98797D01*
X120440Y98783D01*
X120426Y98774D01*
X120377Y98730D01*
X120226Y98602D01*
X113551Y91928D01*
X113445Y91796D01*
X113336Y91667D01*
X113327Y91650D01*
X113315Y91635D01*
X113238Y91484D01*
X113159Y91334D01*
X113154Y91316D01*
X113145Y91299D01*
X113102Y91135D01*
X113056Y90972D01*
X113055Y90950D01*
X113050Y90934D01*
X113048Y90868D01*
X113031Y90671D01*
X113031Y90054D01*
X111484Y86319D01*
X108626Y83461D01*
X104891Y81914D01*
X85609Y81914D01*
X81874Y83461D01*
X79016Y86319D01*
X77469Y90054D01*
X77469Y94096D01*
X79016Y97831D01*
X81874Y100689D01*
X85609Y102236D01*
X104891Y102236D01*
X108705Y100656D01*
X108757Y100614D01*
X108858Y100563D01*
X108954Y100504D01*
X109025Y100479D01*
X109093Y100445D01*
X109202Y100416D01*
X109309Y100378D01*
X109384Y100369D01*
X109457Y100350D01*
X109570Y100345D01*
X109683Y100330D01*
X109758Y100337D01*
X109833Y100334D01*
X109945Y100353D01*
X110058Y100362D01*
X110130Y100384D01*
X110204Y100397D01*
X110310Y100439D01*
X110418Y100473D01*
X110484Y100509D01*
X110554Y100538D01*
X110648Y100601D01*
X110747Y100656D01*
X110816Y100715D01*
X110866Y100748D01*
X110908Y100792D01*
X110977Y100851D01*
X112890Y102763D01*
X112996Y102895D01*
X113105Y103024D01*
X113114Y103041D01*
X113126Y103056D01*
X113203Y103207D01*
X113282Y103357D01*
X113287Y103375D01*
X113296Y103392D01*
X113339Y103556D01*
X113385Y103719D01*
X113386Y103741D01*
X113391Y103757D01*
X113393Y103823D01*
X113410Y104020D01*
X113410Y109355D01*
X113404Y109412D01*
X113407Y109468D01*
X113384Y109598D01*
X113370Y109730D01*
X113353Y109783D01*
X113343Y109839D01*
X113294Y109962D01*
X113253Y110087D01*
X113224Y110136D01*
X113203Y110189D01*
X113129Y110298D01*
X113062Y110412D01*
X113024Y110454D01*
X112992Y110501D01*
X112896Y110592D01*
X112807Y110689D01*
X112761Y110722D01*
X112720Y110761D01*
X112608Y110830D01*
X112500Y110907D01*
X112448Y110929D01*
X112399Y110959D01*
X112275Y111003D01*
X112154Y111054D01*
X112098Y111065D01*
X112044Y111084D01*
X111913Y111101D01*
X111784Y111126D01*
X111727Y111125D01*
X111671Y111132D01*
X111539Y111121D01*
X111407Y111118D01*
X111352Y111105D01*
X111296Y111100D01*
X111169Y111061D01*
X111041Y111031D01*
X110990Y111007D01*
X110936Y110990D01*
X110820Y110925D01*
X110701Y110869D01*
X110656Y110834D01*
X110607Y110806D01*
X110456Y110679D01*
X110403Y110638D01*
X110393Y110626D01*
X110376Y110612D01*
X108626Y108861D01*
X104891Y107314D01*
X85609Y107314D01*
X81874Y108861D01*
X79016Y111719D01*
X77469Y115454D01*
X77469Y119496D01*
X79016Y123231D01*
X81874Y126089D01*
X85609Y127636D01*
X104891Y127636D01*
X106190Y127098D01*
X106272Y127074D01*
X106350Y127040D01*
X106452Y127021D01*
X106552Y126991D01*
X106636Y126985D01*
X106720Y126969D01*
X106824Y126971D01*
X106927Y126963D01*
X107011Y126975D01*
X107096Y126977D01*
X107197Y127001D01*
X107300Y127015D01*
X107380Y127044D01*
X107462Y127064D01*
X107556Y127108D01*
X107654Y127144D01*
X107726Y127189D01*
X107802Y127226D01*
X107884Y127290D01*
X107972Y127345D01*
X108033Y127404D01*
X108100Y127456D01*
X108167Y127536D01*
X108241Y127608D01*
X108288Y127679D01*
X108343Y127744D01*
X108392Y127836D01*
X108449Y127923D01*
X108480Y128002D01*
X108520Y128077D01*
X108548Y128177D01*
X108586Y128273D01*
X108599Y128357D01*
X108622Y128439D01*
X108633Y128572D01*
X108645Y128645D01*
X108643Y128685D01*
X108648Y128740D01*
X108648Y136525D01*
X108636Y136637D01*
X108633Y136751D01*
X108616Y136824D01*
X108608Y136899D01*
X108572Y137007D01*
X108546Y137117D01*
X108514Y137185D01*
X108490Y137257D01*
X108433Y137355D01*
X108384Y137457D01*
X108338Y137516D01*
X108299Y137582D01*
X108223Y137665D01*
X108154Y137755D01*
X108096Y137803D01*
X108045Y137859D01*
X107952Y137924D01*
X107866Y137997D01*
X107799Y138033D01*
X107737Y138077D01*
X107633Y138121D01*
X107533Y138174D01*
X107460Y138195D01*
X107391Y138224D01*
X107280Y138246D01*
X107171Y138277D01*
X107081Y138284D01*
X107021Y138296D01*
X106961Y138295D01*
X106871Y138302D01*
X103865Y138302D01*
X103297Y138538D01*
X103161Y138578D01*
X103028Y138625D01*
X102981Y138631D01*
X102935Y138644D01*
X102794Y138655D01*
X102654Y138673D01*
X102607Y138669D01*
X102560Y138672D01*
X102420Y138653D01*
X102279Y138641D01*
X102234Y138627D01*
X102187Y138620D01*
X102054Y138572D01*
X101919Y138531D01*
X101878Y138508D01*
X101833Y138491D01*
X101714Y138416D01*
X101590Y138347D01*
X101549Y138312D01*
X101533Y138302D01*
X82641Y138302D01*
X81152Y139791D01*
X81152Y150068D01*
X81140Y150180D01*
X81138Y150294D01*
X81120Y150367D01*
X81112Y150442D01*
X81077Y150550D01*
X81051Y150660D01*
X81018Y150728D01*
X80995Y150800D01*
X80937Y150898D01*
X80888Y151000D01*
X80842Y151059D01*
X80804Y151125D01*
X80727Y151208D01*
X80658Y151298D01*
X80600Y151346D01*
X80549Y151402D01*
X80457Y151467D01*
X80370Y151540D01*
X80304Y151576D01*
X80242Y151619D01*
X80138Y151664D01*
X80038Y151717D01*
X79965Y151738D01*
X79896Y151767D01*
X79784Y151789D01*
X79676Y151820D01*
X79585Y151827D01*
X79526Y151839D01*
X79465Y151837D01*
X79375Y151845D01*
X79263Y151833D01*
X79149Y151831D01*
X79076Y151813D01*
X79001Y151805D01*
X78893Y151770D01*
X78783Y151744D01*
X78742Y151724D01*
X78287Y151724D01*
X78215Y151717D01*
X78091Y151713D01*
X78089Y151713D01*
X78051Y151720D01*
X78000Y151718D01*
X77927Y151724D01*
X69174Y151724D01*
X69174Y160079D01*
X69299Y160128D01*
X69467Y160194D01*
X69469Y160196D01*
X69471Y160196D01*
X69623Y160298D01*
X69781Y160402D01*
X69782Y160404D01*
X69784Y160405D01*
X69912Y160537D01*
X70044Y160672D01*
X70045Y160674D01*
X70046Y160675D01*
X70146Y160835D01*
X70244Y160991D01*
X70244Y160993D01*
X70246Y160995D01*
X70354Y161276D01*
X70398Y161430D01*
X70429Y161602D01*
X70462Y161774D01*
X70462Y161788D01*
X70464Y161801D01*
X70458Y161975D01*
X70454Y162151D01*
X70451Y162164D01*
X70451Y162177D01*
X70408Y162347D01*
X70367Y162517D01*
X70361Y162529D01*
X70358Y162542D01*
X70280Y162700D01*
X70205Y162857D01*
X70197Y162867D01*
X70190Y162880D01*
X70081Y163016D01*
X69975Y163155D01*
X69964Y163163D01*
X69956Y163174D01*
X69820Y163285D01*
X69687Y163397D01*
X69675Y163404D01*
X69664Y163412D01*
X69508Y163492D01*
X69354Y163574D01*
X69341Y163578D01*
X69329Y163584D01*
X69160Y163629D01*
X68992Y163677D01*
X68977Y163678D01*
X68965Y163681D01*
X68908Y163684D01*
X68691Y163702D01*
X64502Y163702D01*
X60488Y165365D01*
X57415Y168438D01*
X55752Y172452D01*
X55752Y176798D01*
X57415Y180812D01*
X60488Y183885D01*
X64502Y185548D01*
X68848Y185548D01*
X72862Y183885D01*
X75855Y180892D01*
X75965Y180803D01*
X76070Y180708D01*
X76112Y180685D01*
X76148Y180655D01*
X76275Y180591D01*
X76397Y180521D01*
X76442Y180507D01*
X76485Y180486D01*
X76621Y180450D01*
X76756Y180407D01*
X76803Y180403D01*
X76849Y180391D01*
X76990Y180385D01*
X77131Y180371D01*
X77178Y180377D01*
X77225Y180375D01*
X77365Y180399D01*
X77505Y180415D01*
X77557Y180432D01*
X77596Y180438D01*
X77665Y180466D01*
X77792Y180506D01*
X78465Y180785D01*
X80285Y180785D01*
X80958Y180506D01*
X81093Y180466D01*
X81227Y180419D01*
X81273Y180413D01*
X81319Y180400D01*
X81460Y180389D01*
X81600Y180372D01*
X81647Y180376D01*
X81694Y180372D01*
X81834Y180391D01*
X81975Y180403D01*
X82021Y180417D01*
X82067Y180424D01*
X82200Y180472D01*
X82335Y180514D01*
X82377Y180537D01*
X82421Y180553D01*
X82541Y180628D01*
X82664Y180697D01*
X82706Y180732D01*
X82740Y180754D01*
X82793Y180806D01*
X82895Y180892D01*
X85888Y183885D01*
X89902Y185548D01*
X94248Y185548D01*
X98262Y183885D01*
X101335Y180812D01*
X103075Y176611D01*
X103129Y176511D01*
X103175Y176408D01*
X103219Y176347D01*
X103255Y176280D01*
X103329Y176194D01*
X103396Y176103D01*
X103452Y176052D01*
X103501Y175995D01*
X103591Y175926D01*
X103676Y175851D01*
X103741Y175813D01*
X103801Y175768D01*
X103904Y175720D01*
X104002Y175664D01*
X104074Y175641D01*
X104143Y175609D01*
X104253Y175584D01*
X104361Y175550D01*
X104436Y175542D01*
X104510Y175526D01*
X104623Y175524D01*
X104736Y175514D01*
X104811Y175522D01*
X104887Y175522D01*
X104998Y175544D01*
X105110Y175557D01*
X105196Y175585D01*
X105256Y175597D01*
X105311Y175621D01*
X105397Y175649D01*
X106692Y176185D01*
X109474Y176185D01*
X109586Y176197D01*
X109700Y176200D01*
X109773Y176217D01*
X109848Y176225D01*
X109956Y176261D01*
X110066Y176287D01*
X110134Y176319D01*
X110206Y176343D01*
X110304Y176400D01*
X110406Y176449D01*
X110465Y176495D01*
X110531Y176534D01*
X110614Y176610D01*
X110704Y176679D01*
X110752Y176737D01*
X110808Y176788D01*
X110873Y176881D01*
X110946Y176967D01*
X110982Y177034D01*
X111026Y177096D01*
X111070Y177200D01*
X111123Y177300D01*
X111144Y177373D01*
X111173Y177442D01*
X111195Y177553D01*
X111226Y177662D01*
X111233Y177752D01*
X111245Y177812D01*
X111244Y177872D01*
X111251Y177962D01*
X111251Y209225D01*
X114625Y212599D01*
X128524Y212599D01*
X128636Y212611D01*
X128750Y212613D01*
X128823Y212631D01*
X128898Y212639D01*
X129006Y212674D01*
X129116Y212700D01*
X129184Y212733D01*
X129256Y212756D01*
X129354Y212814D01*
X129456Y212863D01*
X129515Y212909D01*
X129581Y212947D01*
X129664Y213024D01*
X129754Y213093D01*
X129802Y213151D01*
X129858Y213202D01*
X129923Y213294D01*
X129996Y213381D01*
X130032Y213447D01*
X130076Y213509D01*
X130120Y213613D01*
X130173Y213713D01*
X130194Y213786D01*
X130223Y213855D01*
X130245Y213967D01*
X130276Y214075D01*
X130283Y214166D01*
X130295Y214225D01*
X130294Y214286D01*
X130301Y214376D01*
X130301Y224656D01*
X130286Y224796D01*
X130279Y224937D01*
X130266Y224983D01*
X130261Y225030D01*
X130217Y225165D01*
X130180Y225301D01*
X130158Y225343D01*
X130144Y225388D01*
X130072Y225510D01*
X130007Y225635D01*
X129977Y225672D01*
X129953Y225713D01*
X129857Y225817D01*
X129767Y225926D01*
X129730Y225955D01*
X129698Y225990D01*
X129583Y226071D01*
X129472Y226159D01*
X129423Y226184D01*
X129391Y226207D01*
X129323Y226236D01*
X129204Y226298D01*
X129172Y226311D01*
X127886Y227597D01*
X127190Y229278D01*
X127190Y232320D01*
X127172Y232489D01*
X127157Y232657D01*
X127152Y232675D01*
X127150Y232694D01*
X127097Y232855D01*
X127047Y233017D01*
X127038Y233034D01*
X127032Y233052D01*
X126946Y233198D01*
X126864Y233346D01*
X126850Y233362D01*
X126841Y233377D01*
X126797Y233425D01*
X126669Y233576D01*
X121536Y238710D01*
X120840Y240390D01*
X120840Y249782D01*
X120822Y249951D01*
X120807Y250120D01*
X120802Y250138D01*
X120800Y250157D01*
X120747Y250318D01*
X120697Y250480D01*
X120688Y250496D01*
X120682Y250514D01*
X120596Y250661D01*
X120514Y250808D01*
X120500Y250825D01*
X120491Y250839D01*
X120447Y250888D01*
X120319Y251039D01*
X107050Y264309D01*
X107005Y264344D01*
X106967Y264386D01*
X106860Y264462D01*
X106757Y264545D01*
X106706Y264571D01*
X106660Y264603D01*
X106538Y264655D01*
X106421Y264715D01*
X106366Y264729D01*
X106313Y264751D01*
X106184Y264776D01*
X106056Y264809D01*
X106000Y264812D01*
X105944Y264823D01*
X105812Y264820D01*
X105680Y264825D01*
X105624Y264816D01*
X105567Y264815D01*
X105439Y264784D01*
X105309Y264762D01*
X105256Y264741D01*
X105201Y264728D01*
X105082Y264671D01*
X104959Y264621D01*
X104912Y264590D01*
X104861Y264565D01*
X104757Y264485D01*
X104647Y264411D01*
X104608Y264370D01*
X104563Y264335D01*
X104478Y264234D01*
X104387Y264139D01*
X104357Y264090D01*
X104321Y264047D01*
X104259Y263931D01*
X104189Y263818D01*
X104171Y263765D01*
X104144Y263715D01*
X104108Y263588D01*
X104064Y263463D01*
X104057Y263407D01*
X104041Y263352D01*
X104025Y263155D01*
X104016Y263090D01*
X104018Y263073D01*
X104016Y263052D01*
X104016Y262598D01*
X102527Y261109D01*
X84923Y261109D01*
X83434Y262598D01*
X83434Y273357D01*
X83422Y273470D01*
X83420Y273583D01*
X83402Y273656D01*
X83394Y273732D01*
X83359Y273839D01*
X83333Y273949D01*
X83300Y274017D01*
X83277Y274089D01*
X83219Y274187D01*
X83170Y274289D01*
X83124Y274349D01*
X83086Y274414D01*
X83009Y274497D01*
X82940Y274587D01*
X82882Y274636D01*
X82831Y274691D01*
X82739Y274757D01*
X82652Y274830D01*
X82586Y274865D01*
X82524Y274909D01*
X82420Y274953D01*
X82320Y275006D01*
X82247Y275027D01*
X82178Y275057D01*
X82066Y275078D01*
X81958Y275109D01*
X81867Y275117D01*
X81808Y275128D01*
X81747Y275127D01*
X81657Y275135D01*
X37793Y275135D01*
X37708Y275126D01*
X37623Y275126D01*
X37522Y275106D01*
X37418Y275095D01*
X37337Y275068D01*
X37254Y275051D01*
X37159Y275009D01*
X37061Y274977D01*
X36987Y274934D01*
X36910Y274900D01*
X36826Y274839D01*
X36736Y274786D01*
X36673Y274729D01*
X36604Y274679D01*
X36535Y274602D01*
X36459Y274532D01*
X36410Y274462D01*
X36353Y274399D01*
X36301Y274309D01*
X36241Y274224D01*
X36208Y274146D01*
X36166Y274072D01*
X36134Y273973D01*
X36093Y273878D01*
X36077Y273795D01*
X36051Y273713D01*
X36042Y273610D01*
X36022Y273508D01*
X36024Y273423D01*
X36016Y273339D01*
X36028Y273236D01*
X36030Y273132D01*
X36049Y273049D01*
X36059Y272965D01*
X36100Y272837D01*
X36117Y272765D01*
X36134Y272729D01*
X36151Y272677D01*
X36767Y271189D01*
X36767Y268561D01*
X35762Y266134D01*
X33904Y264276D01*
X31476Y263270D01*
X28849Y263270D01*
X28511Y263410D01*
X28503Y263413D01*
X28494Y263417D01*
X28322Y263466D01*
X28150Y263516D01*
X28141Y263517D01*
X28132Y263520D01*
X27831Y263545D01*
X26200Y263545D01*
X26031Y263527D01*
X25862Y263513D01*
X25844Y263507D01*
X25825Y263505D01*
X25664Y263452D01*
X25502Y263403D01*
X25486Y263393D01*
X25468Y263388D01*
X25321Y263302D01*
X25173Y263219D01*
X25157Y263205D01*
X25143Y263197D01*
X25094Y263152D01*
X24943Y263025D01*
X23027Y261109D01*
X22605Y261109D01*
X22493Y261097D01*
X22380Y261095D01*
X22306Y261077D01*
X22231Y261069D01*
X22123Y261034D01*
X22014Y261008D01*
X21945Y260975D01*
X21873Y260952D01*
X21776Y260894D01*
X21674Y260845D01*
X21614Y260799D01*
X21549Y260761D01*
X21465Y260684D01*
X21376Y260615D01*
X21327Y260557D01*
X21271Y260506D01*
X21206Y260414D01*
X21133Y260327D01*
X21098Y260261D01*
X21054Y260199D01*
X21010Y260095D01*
X20956Y259995D01*
X20936Y259922D01*
X20906Y259853D01*
X20885Y259741D01*
X20854Y259633D01*
X20846Y259542D01*
X20835Y259483D01*
X20836Y259422D01*
X20828Y259332D01*
X20828Y257149D01*
X14510Y257149D01*
X14397Y257137D01*
X14284Y257135D01*
X14211Y257117D01*
X14135Y257109D01*
X14028Y257074D01*
X13918Y257048D01*
X13850Y257015D01*
X13778Y256992D01*
X13680Y256934D01*
X13578Y256885D01*
X13518Y256839D01*
X13453Y256801D01*
X13370Y256724D01*
X13280Y256655D01*
X13231Y256597D01*
X13176Y256546D01*
X13110Y256454D01*
X13037Y256367D01*
X13002Y256301D01*
X12958Y256239D01*
X12914Y256135D01*
X12861Y256035D01*
X12840Y255962D01*
X12810Y255893D01*
X12789Y255781D01*
X12758Y255673D01*
X12750Y255582D01*
X12739Y255523D01*
X12740Y255462D01*
X12732Y255372D01*
X12732Y254928D01*
X12744Y254815D01*
X12747Y254702D01*
X12764Y254629D01*
X12772Y254554D01*
X12808Y254446D01*
X12834Y254336D01*
X12866Y254268D01*
X12890Y254196D01*
X12948Y254098D01*
X12996Y253996D01*
X13042Y253936D01*
X13081Y253871D01*
X13157Y253788D01*
X13227Y253698D01*
X13284Y253650D01*
X13335Y253594D01*
X13428Y253529D01*
X13514Y253456D01*
X13581Y253420D01*
X13643Y253376D01*
X13747Y253332D01*
X13847Y253279D01*
X13920Y253258D01*
X13989Y253229D01*
X14100Y253207D01*
X14209Y253176D01*
X14299Y253169D01*
X14359Y253157D01*
X14419Y253158D01*
X14510Y253151D01*
X20828Y253151D01*
X20828Y250815D01*
X20655Y250169D01*
X20321Y249590D01*
X19783Y249052D01*
X19737Y249021D01*
X19715Y248998D01*
X19689Y248980D01*
X19585Y248862D01*
X19476Y248749D01*
X19459Y248722D01*
X19439Y248699D01*
X19361Y248562D01*
X19279Y248428D01*
X19268Y248399D01*
X19253Y248371D01*
X19205Y248222D01*
X19153Y248073D01*
X19149Y248042D01*
X19140Y248012D01*
X19125Y247856D01*
X19105Y247700D01*
X19108Y247668D01*
X19105Y247637D01*
X19124Y247482D01*
X19137Y247325D01*
X19146Y247295D01*
X19150Y247263D01*
X19201Y247115D01*
X19247Y246965D01*
X19263Y246937D01*
X19273Y246907D01*
X19354Y246773D01*
X19431Y246636D01*
X19454Y246609D01*
X19468Y246585D01*
X19519Y246531D01*
X19625Y246405D01*
X20787Y245243D01*
X20920Y245137D01*
X21049Y245028D01*
X21065Y245019D01*
X21080Y245007D01*
X21232Y244930D01*
X21381Y244851D01*
X21400Y244846D01*
X21417Y244837D01*
X21581Y244794D01*
X21744Y244748D01*
X21765Y244747D01*
X21781Y244742D01*
X21847Y244740D01*
X22044Y244723D01*
X24104Y244723D01*
X25785Y244027D01*
X27321Y242490D01*
X33065Y236746D01*
X34602Y235210D01*
X35298Y233529D01*
X35298Y216193D01*
X35310Y216081D01*
X35312Y215967D01*
X35330Y215894D01*
X35338Y215819D01*
X35373Y215711D01*
X35399Y215601D01*
X35432Y215533D01*
X35455Y215461D01*
X35513Y215363D01*
X35562Y215261D01*
X35608Y215202D01*
X35646Y215136D01*
X35723Y215053D01*
X35792Y214963D01*
X35850Y214915D01*
X35901Y214859D01*
X35993Y214794D01*
X36080Y214721D01*
X36146Y214685D01*
X36208Y214641D01*
X36312Y214597D01*
X36412Y214544D01*
X36485Y214523D01*
X36554Y214494D01*
X36666Y214472D01*
X36743Y214450D01*
X38266Y212927D01*
X38266Y199823D01*
X36777Y198334D01*
X33103Y198334D01*
X32947Y198318D01*
X32790Y198307D01*
X32760Y198298D01*
X32729Y198294D01*
X32579Y198245D01*
X32429Y198201D01*
X32401Y198186D01*
X32371Y198177D01*
X32235Y198097D01*
X32098Y198022D01*
X32074Y198002D01*
X32046Y197986D01*
X31931Y197880D01*
X31811Y197778D01*
X31792Y197753D01*
X31769Y197731D01*
X31679Y197603D01*
X31583Y197478D01*
X31570Y197450D01*
X31552Y197424D01*
X31490Y197280D01*
X31423Y197137D01*
X31416Y197106D01*
X31404Y197078D01*
X31374Y196923D01*
X31339Y196770D01*
X31338Y196739D01*
X31332Y196708D01*
X31336Y196551D01*
X31333Y196394D01*
X31340Y196359D01*
X31340Y196331D01*
X31358Y196258D01*
X31386Y196097D01*
X31591Y195335D01*
X31591Y192277D01*
X25550Y192277D01*
X25438Y192265D01*
X25325Y192263D01*
X25251Y192246D01*
X25176Y192238D01*
X25068Y192202D01*
X24958Y192176D01*
X24890Y192143D01*
X24818Y192120D01*
X24721Y192062D01*
X24619Y192014D01*
X24559Y191967D01*
X24494Y191929D01*
X24410Y191852D01*
X24321Y191783D01*
X24320Y191783D01*
X24271Y191725D01*
X24216Y191674D01*
X24150Y191582D01*
X24077Y191495D01*
X24042Y191428D01*
X23998Y191366D01*
X23954Y191262D01*
X23901Y191162D01*
X23880Y191090D01*
X23851Y191020D01*
X23829Y190909D01*
X23798Y190800D01*
X23790Y190710D01*
X23779Y190650D01*
X23780Y190590D01*
X23773Y190500D01*
X23773Y183459D01*
X21715Y183459D01*
X21069Y183632D01*
X20490Y183967D01*
X20307Y184150D01*
X20219Y184221D01*
X20137Y184300D01*
X20073Y184339D01*
X20014Y184387D01*
X19913Y184438D01*
X19816Y184497D01*
X19745Y184522D01*
X19678Y184556D01*
X19568Y184585D01*
X19461Y184622D01*
X19386Y184632D01*
X19313Y184651D01*
X19200Y184656D01*
X19088Y184670D01*
X19013Y184664D01*
X18937Y184667D01*
X18825Y184648D01*
X18713Y184638D01*
X18640Y184616D01*
X18566Y184603D01*
X18461Y184561D01*
X18353Y184528D01*
X18287Y184491D01*
X18216Y184463D01*
X18123Y184400D01*
X18024Y184345D01*
X17955Y184286D01*
X17904Y184252D01*
X17863Y184209D01*
X17793Y184150D01*
X17102Y183459D01*
X7998Y183459D01*
X7035Y184422D01*
X6991Y184458D01*
X6952Y184500D01*
X6844Y184576D01*
X6742Y184659D01*
X6691Y184684D01*
X6645Y184717D01*
X6524Y184769D01*
X6406Y184828D01*
X6351Y184843D01*
X6298Y184865D01*
X6169Y184890D01*
X6041Y184923D01*
X5985Y184926D01*
X5929Y184936D01*
X5797Y184934D01*
X5665Y184939D01*
X5609Y184930D01*
X5552Y184928D01*
X5424Y184898D01*
X5294Y184876D01*
X5241Y184854D01*
X5186Y184841D01*
X5067Y184784D01*
X4944Y184735D01*
X4897Y184703D01*
X4846Y184679D01*
X4742Y184598D01*
X4632Y184524D01*
X4593Y184483D01*
X4548Y184449D01*
X4463Y184348D01*
X4372Y184252D01*
X4342Y184204D01*
X4306Y184161D01*
X4244Y184044D01*
X4174Y183932D01*
X4156Y183878D01*
X4129Y183828D01*
X4093Y183701D01*
X4049Y183577D01*
X4042Y183521D01*
X4026Y183466D01*
X4010Y183269D01*
X4001Y183203D01*
X4003Y183187D01*
X4001Y183165D01*
X4001Y5778D01*
X4013Y5666D01*
X4015Y5552D01*
X4033Y5479D01*
X4041Y5404D01*
X4076Y5296D01*
X4102Y5186D01*
X4135Y5118D01*
X4158Y5046D01*
X4216Y4948D01*
X4265Y4846D01*
X4311Y4787D01*
X4349Y4721D01*
X4426Y4638D01*
X4495Y4548D01*
X4553Y4500D01*
X4604Y4444D01*
X4696Y4379D01*
X4783Y4306D01*
X4849Y4270D01*
X4911Y4226D01*
X5015Y4182D01*
X5115Y4129D01*
X5188Y4108D01*
X5257Y4079D01*
X5369Y4057D01*
X5477Y4026D01*
X5568Y4019D01*
X5627Y4007D01*
X5688Y4008D01*
X5778Y4001D01*
X160304Y4001D01*
X160423Y4013D01*
G37*
%LPC*%
G36*
X339052Y27731D02*
X339052Y27731D01*
X338960Y27796D01*
X338873Y27869D01*
X338806Y27905D01*
X338745Y27949D01*
X338641Y27993D01*
X338541Y28046D01*
X338468Y28067D01*
X338398Y28096D01*
X338287Y28118D01*
X338178Y28149D01*
X338088Y28156D01*
X338029Y28168D01*
X337968Y28167D01*
X337878Y28174D01*
X321559Y28174D01*
X321559Y31510D01*
X321750Y32221D01*
X321753Y32226D01*
X321770Y32287D01*
X321795Y32344D01*
X321821Y32467D01*
X321855Y32588D01*
X321861Y32662D01*
X321872Y32713D01*
X321872Y32781D01*
X321881Y32889D01*
X321881Y37065D01*
X321863Y37233D01*
X321848Y37402D01*
X321843Y37420D01*
X321841Y37439D01*
X321788Y37601D01*
X321738Y37762D01*
X321729Y37779D01*
X321723Y37797D01*
X321637Y37943D01*
X321559Y38083D01*
X321559Y52270D01*
X321576Y52290D01*
X321585Y52307D01*
X321597Y52321D01*
X321673Y52473D01*
X321753Y52622D01*
X321758Y52641D01*
X321766Y52658D01*
X321809Y52822D01*
X321855Y52985D01*
X321857Y53006D01*
X321861Y53022D01*
X321864Y53088D01*
X321881Y53285D01*
X321881Y57065D01*
X321863Y57234D01*
X321848Y57402D01*
X321843Y57420D01*
X321841Y57439D01*
X321788Y57601D01*
X321738Y57762D01*
X321729Y57779D01*
X321723Y57797D01*
X321637Y57943D01*
X321559Y58083D01*
X321559Y72270D01*
X321576Y72290D01*
X321585Y72307D01*
X321597Y72321D01*
X321673Y72472D01*
X321753Y72622D01*
X321758Y72641D01*
X321766Y72658D01*
X321800Y72785D01*
X321803Y72793D01*
X321806Y72812D01*
X321809Y72822D01*
X321855Y72985D01*
X321857Y73006D01*
X321861Y73022D01*
X321864Y73088D01*
X321867Y73126D01*
X321874Y73163D01*
X321874Y73200D01*
X321881Y73285D01*
X321881Y77065D01*
X321863Y77234D01*
X321848Y77402D01*
X321843Y77420D01*
X321841Y77439D01*
X321788Y77601D01*
X321738Y77762D01*
X321729Y77779D01*
X321723Y77797D01*
X321637Y77943D01*
X321559Y78083D01*
X321559Y92270D01*
X321576Y92290D01*
X321585Y92307D01*
X321597Y92321D01*
X321673Y92473D01*
X321753Y92622D01*
X321758Y92641D01*
X321766Y92658D01*
X321809Y92822D01*
X321855Y92985D01*
X321857Y93006D01*
X321861Y93022D01*
X321864Y93088D01*
X321881Y93285D01*
X321881Y97065D01*
X321863Y97234D01*
X321848Y97402D01*
X321843Y97420D01*
X321841Y97439D01*
X321788Y97601D01*
X321738Y97762D01*
X321729Y97779D01*
X321723Y97797D01*
X321637Y97943D01*
X321559Y98083D01*
X321559Y112270D01*
X321576Y112290D01*
X321585Y112307D01*
X321597Y112321D01*
X321673Y112473D01*
X321753Y112622D01*
X321758Y112641D01*
X321766Y112658D01*
X321809Y112822D01*
X321855Y112985D01*
X321857Y113006D01*
X321861Y113022D01*
X321864Y113088D01*
X321881Y113285D01*
X321881Y117461D01*
X321867Y117586D01*
X321863Y117712D01*
X321848Y117773D01*
X321841Y117836D01*
X321802Y117955D01*
X321771Y118077D01*
X321755Y118111D01*
X321559Y118840D01*
X321559Y122176D01*
X337878Y122176D01*
X337990Y122188D01*
X338103Y122190D01*
X338177Y122208D01*
X338252Y122216D01*
X338360Y122251D01*
X338470Y122277D01*
X338538Y122310D01*
X338610Y122333D01*
X338708Y122391D01*
X338810Y122440D01*
X338869Y122486D01*
X338935Y122524D01*
X339018Y122601D01*
X339104Y122667D01*
X339148Y122619D01*
X339240Y122554D01*
X339327Y122481D01*
X339394Y122445D01*
X339455Y122401D01*
X339559Y122357D01*
X339659Y122304D01*
X339732Y122283D01*
X339802Y122254D01*
X339913Y122232D01*
X340022Y122201D01*
X340112Y122194D01*
X340171Y122182D01*
X340232Y122183D01*
X340322Y122176D01*
X356641Y122176D01*
X356641Y118840D01*
X356468Y118194D01*
X356220Y117765D01*
X356169Y117650D01*
X356110Y117539D01*
X356093Y117479D01*
X356067Y117421D01*
X356042Y117298D01*
X356007Y117177D01*
X356001Y117103D01*
X355990Y117052D01*
X355991Y116985D01*
X355982Y116877D01*
X355982Y113623D01*
X356000Y113454D01*
X356014Y113285D01*
X356020Y113267D01*
X356022Y113248D01*
X356075Y113087D01*
X356124Y112925D01*
X356134Y112909D01*
X356139Y112891D01*
X356225Y112744D01*
X356308Y112596D01*
X356322Y112580D01*
X356330Y112566D01*
X356375Y112517D01*
X356502Y112366D01*
X356641Y112227D01*
X356641Y98123D01*
X356502Y97984D01*
X356396Y97852D01*
X356287Y97723D01*
X356278Y97706D01*
X356266Y97691D01*
X356189Y97540D01*
X356110Y97390D01*
X356105Y97372D01*
X356096Y97355D01*
X356053Y97191D01*
X356007Y97028D01*
X356006Y97007D01*
X356001Y96991D01*
X355999Y96925D01*
X355982Y96727D01*
X355982Y93623D01*
X356000Y93454D01*
X356014Y93285D01*
X356020Y93267D01*
X356022Y93248D01*
X356075Y93087D01*
X356124Y92925D01*
X356134Y92909D01*
X356139Y92891D01*
X356225Y92744D01*
X356308Y92596D01*
X356322Y92580D01*
X356330Y92566D01*
X356375Y92517D01*
X356502Y92366D01*
X356641Y92227D01*
X356641Y78123D01*
X356502Y77984D01*
X356396Y77852D01*
X356287Y77723D01*
X356278Y77706D01*
X356266Y77691D01*
X356189Y77539D01*
X356110Y77390D01*
X356105Y77372D01*
X356096Y77355D01*
X356053Y77191D01*
X356007Y77028D01*
X356006Y77007D01*
X356001Y76991D01*
X355999Y76925D01*
X355982Y76727D01*
X355982Y73623D01*
X356000Y73453D01*
X356014Y73285D01*
X356020Y73267D01*
X356022Y73248D01*
X356075Y73087D01*
X356124Y72925D01*
X356134Y72909D01*
X356139Y72891D01*
X356225Y72744D01*
X356308Y72596D01*
X356322Y72580D01*
X356330Y72566D01*
X356375Y72517D01*
X356502Y72366D01*
X356641Y72227D01*
X356641Y58123D01*
X356502Y57984D01*
X356396Y57852D01*
X356287Y57723D01*
X356278Y57706D01*
X356266Y57691D01*
X356189Y57540D01*
X356110Y57390D01*
X356105Y57372D01*
X356096Y57355D01*
X356053Y57191D01*
X356007Y57028D01*
X356006Y57007D01*
X356001Y56991D01*
X355999Y56925D01*
X355982Y56727D01*
X355982Y53623D01*
X356000Y53454D01*
X356014Y53285D01*
X356020Y53267D01*
X356022Y53248D01*
X356075Y53087D01*
X356124Y52925D01*
X356134Y52909D01*
X356139Y52891D01*
X356225Y52744D01*
X356308Y52596D01*
X356322Y52580D01*
X356330Y52566D01*
X356375Y52517D01*
X356502Y52366D01*
X356641Y52227D01*
X356641Y38123D01*
X356502Y37984D01*
X356396Y37852D01*
X356287Y37723D01*
X356278Y37706D01*
X356266Y37691D01*
X356189Y37540D01*
X356110Y37390D01*
X356105Y37372D01*
X356096Y37355D01*
X356053Y37191D01*
X356007Y37028D01*
X356006Y37007D01*
X356001Y36991D01*
X355999Y36925D01*
X355982Y36727D01*
X355982Y33473D01*
X355995Y33348D01*
X355999Y33223D01*
X356015Y33162D01*
X356022Y33099D01*
X356061Y32979D01*
X356092Y32858D01*
X356123Y32791D01*
X356139Y32741D01*
X356174Y32683D01*
X356220Y32585D01*
X356468Y32156D01*
X356641Y31510D01*
X356641Y28174D01*
X340322Y28174D01*
X340210Y28162D01*
X340097Y28160D01*
X340023Y28142D01*
X339948Y28134D01*
X339840Y28099D01*
X339730Y28073D01*
X339662Y28040D01*
X339590Y28017D01*
X339492Y27959D01*
X339390Y27910D01*
X339331Y27864D01*
X339265Y27826D01*
X339182Y27749D01*
X339096Y27683D01*
X339052Y27731D01*
G37*
%LPD*%
%LPC*%
G36*
X107280Y18034D02*
X107280Y18034D01*
X107280Y25020D01*
X114808Y25020D01*
X114920Y25032D01*
X115034Y25034D01*
X115107Y25052D01*
X115182Y25060D01*
X115290Y25095D01*
X115400Y25121D01*
X115468Y25154D01*
X115540Y25178D01*
X115638Y25235D01*
X115740Y25284D01*
X115799Y25330D01*
X115865Y25368D01*
X115948Y25445D01*
X116038Y25514D01*
X116086Y25572D01*
X116142Y25623D01*
X116207Y25715D01*
X116280Y25802D01*
X116316Y25868D01*
X116360Y25930D01*
X116404Y26034D01*
X116457Y26134D01*
X116478Y26207D01*
X116507Y26277D01*
X116529Y26388D01*
X116560Y26497D01*
X116567Y26587D01*
X116579Y26646D01*
X116578Y26707D01*
X116585Y26797D01*
X116585Y30353D01*
X116573Y30465D01*
X116571Y30579D01*
X116553Y30652D01*
X116545Y30727D01*
X116510Y30835D01*
X116484Y30945D01*
X116451Y31013D01*
X116428Y31085D01*
X116370Y31183D01*
X116321Y31285D01*
X116275Y31344D01*
X116237Y31410D01*
X116160Y31493D01*
X116091Y31583D01*
X116033Y31631D01*
X115982Y31687D01*
X115890Y31752D01*
X115803Y31825D01*
X115737Y31861D01*
X115675Y31904D01*
X115571Y31949D01*
X115471Y32002D01*
X115398Y32023D01*
X115329Y32052D01*
X115217Y32074D01*
X115109Y32105D01*
X115018Y32112D01*
X114959Y32124D01*
X114898Y32122D01*
X114808Y32130D01*
X107280Y32130D01*
X107280Y39116D01*
X117060Y39116D01*
X117706Y38943D01*
X118393Y38546D01*
X118405Y38540D01*
X118415Y38533D01*
X118577Y38464D01*
X118738Y38393D01*
X118750Y38390D01*
X118762Y38385D01*
X118934Y38352D01*
X119106Y38316D01*
X119119Y38316D01*
X119131Y38314D01*
X119308Y38318D01*
X119483Y38319D01*
X119495Y38322D01*
X119508Y38322D01*
X119679Y38363D01*
X119850Y38401D01*
X119862Y38406D01*
X119874Y38409D01*
X120032Y38485D01*
X120192Y38558D01*
X120202Y38566D01*
X120214Y38571D01*
X120352Y38678D01*
X120493Y38784D01*
X120502Y38794D01*
X120512Y38801D01*
X120625Y38936D01*
X120740Y39069D01*
X120746Y39080D01*
X120754Y39089D01*
X120837Y39244D01*
X120922Y39399D01*
X120925Y39411D01*
X120931Y39422D01*
X120979Y39591D01*
X121029Y39759D01*
X121030Y39772D01*
X121034Y39784D01*
X121059Y40085D01*
X121059Y49883D01*
X121064Y49888D01*
X121140Y50040D01*
X121220Y50189D01*
X121225Y50208D01*
X121233Y50225D01*
X121276Y50389D01*
X121322Y50552D01*
X121324Y50573D01*
X121328Y50589D01*
X121331Y50655D01*
X121348Y50852D01*
X121348Y54698D01*
X121330Y54867D01*
X121315Y55035D01*
X121310Y55053D01*
X121308Y55072D01*
X121255Y55234D01*
X121205Y55395D01*
X121196Y55412D01*
X121190Y55430D01*
X121104Y55576D01*
X121059Y55657D01*
X121059Y72827D01*
X122548Y74316D01*
X144652Y74316D01*
X146141Y72827D01*
X146141Y72657D01*
X146153Y72545D01*
X146155Y72431D01*
X146173Y72358D01*
X146181Y72283D01*
X146216Y72175D01*
X146242Y72065D01*
X146275Y71997D01*
X146298Y71925D01*
X146356Y71827D01*
X146405Y71725D01*
X146451Y71666D01*
X146489Y71600D01*
X146566Y71517D01*
X146635Y71427D01*
X146693Y71379D01*
X146744Y71323D01*
X146836Y71258D01*
X146923Y71185D01*
X146989Y71149D01*
X147051Y71105D01*
X147155Y71061D01*
X147255Y71008D01*
X147328Y70987D01*
X147397Y70958D01*
X147509Y70936D01*
X147617Y70905D01*
X147708Y70898D01*
X147767Y70886D01*
X147828Y70887D01*
X147918Y70880D01*
X149764Y70880D01*
X152191Y69874D01*
X154824Y67241D01*
X155830Y64814D01*
X155830Y62186D01*
X154824Y59759D01*
X152966Y57901D01*
X150539Y56895D01*
X148406Y56895D01*
X148350Y56889D01*
X148293Y56892D01*
X148163Y56869D01*
X148032Y56855D01*
X147978Y56838D01*
X147922Y56828D01*
X147800Y56779D01*
X147674Y56738D01*
X147625Y56709D01*
X147573Y56688D01*
X147463Y56614D01*
X147349Y56547D01*
X147308Y56508D01*
X147261Y56477D01*
X147169Y56382D01*
X147072Y56292D01*
X147039Y56246D01*
X147000Y56205D01*
X146931Y56092D01*
X146855Y55985D01*
X146832Y55933D01*
X146803Y55884D01*
X146759Y55760D01*
X146707Y55639D01*
X146696Y55583D01*
X146677Y55529D01*
X146661Y55399D01*
X146635Y55269D01*
X146637Y55212D01*
X146629Y55156D01*
X146641Y55024D01*
X146643Y54892D01*
X146657Y54837D01*
X146661Y54781D01*
X146700Y54654D01*
X146731Y54526D01*
X146755Y54475D01*
X146772Y54421D01*
X146836Y54305D01*
X146893Y54186D01*
X146927Y54141D01*
X146940Y54120D01*
X146940Y50704D01*
X146661Y50425D01*
X146555Y50293D01*
X146446Y50164D01*
X146437Y50147D01*
X146425Y50132D01*
X146348Y49981D01*
X146269Y49832D01*
X146264Y49813D01*
X146255Y49796D01*
X146213Y49633D01*
X146166Y49469D01*
X146165Y49448D01*
X146160Y49432D01*
X146158Y49366D01*
X146141Y49169D01*
X146141Y32723D01*
X144304Y30886D01*
X144205Y30764D01*
X144102Y30645D01*
X144087Y30617D01*
X144067Y30593D01*
X143997Y30453D01*
X143921Y30315D01*
X143912Y30285D01*
X143898Y30257D01*
X143858Y30105D01*
X143813Y29954D01*
X143811Y29923D01*
X143803Y29892D01*
X143796Y29735D01*
X143784Y29579D01*
X143788Y29548D01*
X143787Y29516D01*
X143813Y29361D01*
X143834Y29206D01*
X143845Y29176D01*
X143851Y29145D01*
X143909Y28999D01*
X143962Y28852D01*
X143979Y28825D01*
X143991Y28795D01*
X144079Y28665D01*
X144162Y28532D01*
X144184Y28510D01*
X144202Y28484D01*
X144315Y28375D01*
X144424Y28262D01*
X144454Y28242D01*
X144474Y28223D01*
X144537Y28184D01*
X144672Y28090D01*
X145160Y27808D01*
X145633Y27335D01*
X145968Y26756D01*
X146141Y26110D01*
X146141Y21830D01*
X135378Y21830D01*
X135266Y21818D01*
X135152Y21816D01*
X135079Y21798D01*
X135004Y21790D01*
X134896Y21755D01*
X134786Y21729D01*
X134718Y21696D01*
X134646Y21672D01*
X134548Y21615D01*
X134446Y21566D01*
X134387Y21520D01*
X134321Y21482D01*
X134238Y21405D01*
X134148Y21336D01*
X134100Y21278D01*
X134044Y21227D01*
X133979Y21135D01*
X133906Y21048D01*
X133870Y20981D01*
X133827Y20920D01*
X133782Y20816D01*
X133729Y20716D01*
X133708Y20643D01*
X133679Y20573D01*
X133657Y20462D01*
X133626Y20353D01*
X133619Y20263D01*
X133607Y20204D01*
X133608Y20152D01*
X133607Y20147D01*
X133608Y20132D01*
X133601Y20053D01*
X133601Y18274D01*
X133599Y18274D01*
X133599Y20053D01*
X133587Y20165D01*
X133585Y20279D01*
X133567Y20352D01*
X133559Y20427D01*
X133524Y20535D01*
X133498Y20645D01*
X133465Y20713D01*
X133441Y20785D01*
X133384Y20883D01*
X133335Y20985D01*
X133289Y21044D01*
X133251Y21110D01*
X133174Y21193D01*
X133105Y21283D01*
X133047Y21331D01*
X132996Y21387D01*
X132904Y21452D01*
X132817Y21525D01*
X132750Y21561D01*
X132689Y21604D01*
X132585Y21649D01*
X132485Y21702D01*
X132412Y21723D01*
X132342Y21752D01*
X132231Y21774D01*
X132122Y21805D01*
X132032Y21812D01*
X131973Y21824D01*
X131912Y21822D01*
X131822Y21830D01*
X121043Y21830D01*
X120931Y21818D01*
X120817Y21816D01*
X120744Y21798D01*
X120669Y21790D01*
X120561Y21755D01*
X120451Y21729D01*
X120383Y21696D01*
X120311Y21672D01*
X120213Y21615D01*
X120111Y21566D01*
X120052Y21520D01*
X119986Y21482D01*
X119903Y21405D01*
X119813Y21336D01*
X119765Y21278D01*
X119709Y21227D01*
X119644Y21135D01*
X119571Y21048D01*
X119535Y20981D01*
X119491Y20920D01*
X119447Y20816D01*
X119394Y20716D01*
X119373Y20643D01*
X119344Y20573D01*
X119322Y20462D01*
X119291Y20353D01*
X119289Y20328D01*
X119093Y19594D01*
X118758Y19015D01*
X118285Y18542D01*
X117706Y18207D01*
X117060Y18034D01*
X107280Y18034D01*
G37*
%LPD*%
G36*
X132936Y185376D02*
X132936Y185376D01*
X133068Y185378D01*
X133123Y185392D01*
X133179Y185396D01*
X133306Y185435D01*
X133434Y185466D01*
X133485Y185490D01*
X133539Y185507D01*
X133655Y185571D01*
X133774Y185628D01*
X133819Y185662D01*
X133868Y185690D01*
X134019Y185818D01*
X134072Y185858D01*
X134082Y185871D01*
X134099Y185885D01*
X135362Y187148D01*
X141191Y192977D01*
X181730Y192977D01*
X181899Y192995D01*
X182068Y193010D01*
X182086Y193015D01*
X182105Y193017D01*
X182266Y193070D01*
X182428Y193120D01*
X182444Y193129D01*
X182462Y193135D01*
X182609Y193221D01*
X182756Y193303D01*
X182773Y193317D01*
X182787Y193326D01*
X182836Y193370D01*
X182987Y193498D01*
X186832Y197343D01*
X186938Y197475D01*
X187047Y197604D01*
X187056Y197621D01*
X187068Y197636D01*
X187144Y197787D01*
X187224Y197937D01*
X187229Y197955D01*
X187238Y197972D01*
X187281Y198136D01*
X187327Y198299D01*
X187328Y198320D01*
X187333Y198336D01*
X187335Y198402D01*
X187352Y198599D01*
X187352Y199695D01*
X188315Y202019D01*
X190094Y203798D01*
X192417Y204760D01*
X194933Y204760D01*
X196678Y204037D01*
X196759Y204013D01*
X196838Y203980D01*
X196939Y203960D01*
X197039Y203931D01*
X197124Y203925D01*
X197207Y203908D01*
X197311Y203911D01*
X197415Y203903D01*
X197499Y203915D01*
X197584Y203916D01*
X197685Y203940D01*
X197788Y203955D01*
X197867Y203984D01*
X197950Y204004D01*
X198044Y204048D01*
X198141Y204084D01*
X198213Y204129D01*
X198290Y204166D01*
X198372Y204229D01*
X198460Y204285D01*
X198521Y204344D01*
X198588Y204396D01*
X198655Y204475D01*
X198729Y204548D01*
X198776Y204619D01*
X198830Y204684D01*
X198879Y204776D01*
X198936Y204862D01*
X198967Y204942D01*
X199007Y205016D01*
X199035Y205116D01*
X199073Y205213D01*
X199087Y205297D01*
X199110Y205379D01*
X199121Y205511D01*
X199133Y205585D01*
X199131Y205625D01*
X199135Y205679D01*
X199135Y210058D01*
X199123Y210170D01*
X199121Y210284D01*
X199103Y210357D01*
X199095Y210432D01*
X199060Y210540D01*
X199034Y210650D01*
X199001Y210718D01*
X198978Y210790D01*
X198920Y210888D01*
X198871Y210990D01*
X198825Y211049D01*
X198787Y211115D01*
X198710Y211198D01*
X198641Y211288D01*
X198583Y211336D01*
X198532Y211392D01*
X198440Y211457D01*
X198353Y211530D01*
X198287Y211566D01*
X198225Y211610D01*
X198121Y211654D01*
X198021Y211707D01*
X197948Y211728D01*
X197879Y211757D01*
X197767Y211779D01*
X197659Y211810D01*
X197568Y211817D01*
X197509Y211829D01*
X197448Y211828D01*
X197358Y211835D01*
X172634Y211835D01*
X172557Y211836D01*
X172395Y211843D01*
X172369Y211839D01*
X172342Y211839D01*
X172319Y211835D01*
X170877Y211835D01*
X170877Y220726D01*
X170865Y220838D01*
X170863Y220951D01*
X170846Y221025D01*
X170838Y221100D01*
X170802Y221208D01*
X170776Y221318D01*
X170743Y221386D01*
X170720Y221458D01*
X170662Y221555D01*
X170614Y221657D01*
X170567Y221717D01*
X170529Y221782D01*
X170452Y221866D01*
X170383Y221955D01*
X170325Y222004D01*
X170274Y222060D01*
X170182Y222125D01*
X170095Y222198D01*
X170029Y222234D01*
X169967Y222277D01*
X169863Y222322D01*
X169763Y222375D01*
X169690Y222395D01*
X169621Y222425D01*
X169510Y222446D01*
X169401Y222477D01*
X169310Y222485D01*
X169251Y222497D01*
X169190Y222495D01*
X169100Y222503D01*
X168987Y222491D01*
X168874Y222489D01*
X168801Y222471D01*
X168725Y222463D01*
X168618Y222428D01*
X168508Y222401D01*
X168440Y222369D01*
X168368Y222345D01*
X168270Y222288D01*
X168168Y222239D01*
X168108Y222193D01*
X168043Y222155D01*
X167960Y222078D01*
X167870Y222009D01*
X167821Y221951D01*
X167766Y221900D01*
X167700Y221808D01*
X167627Y221721D01*
X167592Y221654D01*
X167548Y221592D01*
X167504Y221488D01*
X167451Y221388D01*
X167430Y221316D01*
X167401Y221246D01*
X167379Y221135D01*
X167348Y221026D01*
X167340Y220936D01*
X167329Y220876D01*
X167330Y220816D01*
X167323Y220726D01*
X167323Y210225D01*
X167320Y210209D01*
X167321Y210124D01*
X167313Y210039D01*
X167325Y209936D01*
X167327Y209832D01*
X167347Y209750D01*
X167357Y209665D01*
X167398Y209538D01*
X167415Y209466D01*
X167432Y209430D01*
X167448Y209378D01*
X167514Y209220D01*
X167514Y206705D01*
X166551Y204381D01*
X164772Y202602D01*
X162449Y201640D01*
X159933Y201640D01*
X157610Y202602D01*
X155831Y204381D01*
X154868Y206705D01*
X154868Y209220D01*
X154934Y209378D01*
X154958Y209459D01*
X154991Y209537D01*
X155011Y209639D01*
X155040Y209739D01*
X155046Y209824D01*
X155062Y209907D01*
X155060Y210011D01*
X155068Y210114D01*
X155056Y210199D01*
X155055Y210284D01*
X155030Y210385D01*
X155016Y210487D01*
X154987Y210567D01*
X154967Y210650D01*
X154923Y210743D01*
X154887Y210841D01*
X154877Y210856D01*
X154877Y220726D01*
X154865Y220838D01*
X154863Y220951D01*
X154846Y221025D01*
X154838Y221100D01*
X154802Y221208D01*
X154776Y221318D01*
X154743Y221386D01*
X154720Y221458D01*
X154662Y221555D01*
X154614Y221657D01*
X154567Y221717D01*
X154529Y221782D01*
X154452Y221866D01*
X154383Y221955D01*
X154325Y222004D01*
X154274Y222060D01*
X154182Y222125D01*
X154095Y222198D01*
X154029Y222234D01*
X153967Y222277D01*
X153863Y222322D01*
X153763Y222375D01*
X153690Y222395D01*
X153621Y222425D01*
X153510Y222446D01*
X153401Y222477D01*
X153310Y222485D01*
X153251Y222497D01*
X153190Y222495D01*
X153100Y222503D01*
X152987Y222491D01*
X152874Y222489D01*
X152801Y222471D01*
X152725Y222463D01*
X152618Y222428D01*
X152508Y222401D01*
X152440Y222369D01*
X152368Y222345D01*
X152270Y222288D01*
X152168Y222239D01*
X152108Y222193D01*
X152043Y222155D01*
X151960Y222078D01*
X151870Y222009D01*
X151821Y221951D01*
X151766Y221900D01*
X151700Y221808D01*
X151627Y221721D01*
X151592Y221654D01*
X151548Y221592D01*
X151504Y221488D01*
X151451Y221388D01*
X151430Y221316D01*
X151401Y221246D01*
X151379Y221135D01*
X151348Y221026D01*
X151340Y220936D01*
X151329Y220876D01*
X151330Y220816D01*
X151323Y220726D01*
X151323Y211835D01*
X149843Y211835D01*
X149783Y211845D01*
X149756Y211843D01*
X149730Y211847D01*
X149599Y211835D01*
X132842Y211835D01*
X132730Y211823D01*
X132616Y211821D01*
X132543Y211803D01*
X132468Y211795D01*
X132360Y211760D01*
X132250Y211734D01*
X132182Y211701D01*
X132110Y211678D01*
X132012Y211620D01*
X131910Y211571D01*
X131851Y211525D01*
X131785Y211487D01*
X131702Y211410D01*
X131612Y211341D01*
X131564Y211283D01*
X131508Y211232D01*
X131443Y211140D01*
X131370Y211053D01*
X131334Y210987D01*
X131290Y210925D01*
X131246Y210821D01*
X131193Y210721D01*
X131172Y210648D01*
X131143Y210579D01*
X131121Y210467D01*
X131090Y210359D01*
X131083Y210268D01*
X131071Y210209D01*
X131072Y210148D01*
X131065Y210058D01*
X131065Y187141D01*
X131071Y187085D01*
X131068Y187028D01*
X131091Y186898D01*
X131105Y186767D01*
X131122Y186713D01*
X131132Y186657D01*
X131181Y186535D01*
X131222Y186409D01*
X131251Y186360D01*
X131272Y186308D01*
X131346Y186199D01*
X131413Y186084D01*
X131451Y186043D01*
X131483Y185996D01*
X131578Y185904D01*
X131668Y185807D01*
X131714Y185774D01*
X131755Y185735D01*
X131867Y185666D01*
X131975Y185590D01*
X132027Y185567D01*
X132076Y185538D01*
X132200Y185494D01*
X132321Y185442D01*
X132377Y185431D01*
X132431Y185412D01*
X132562Y185395D01*
X132691Y185370D01*
X132748Y185372D01*
X132804Y185364D01*
X132936Y185376D01*
G37*
%LPC*%
G36*
X53673Y18034D02*
X53673Y18034D01*
X52184Y19523D01*
X52184Y37627D01*
X53673Y39116D01*
X59343Y39116D01*
X59455Y39128D01*
X59569Y39130D01*
X59642Y39148D01*
X59717Y39156D01*
X59825Y39191D01*
X59935Y39217D01*
X60003Y39250D01*
X60075Y39273D01*
X60173Y39331D01*
X60275Y39380D01*
X60334Y39426D01*
X60400Y39464D01*
X60483Y39541D01*
X60573Y39610D01*
X60621Y39668D01*
X60677Y39719D01*
X60742Y39811D01*
X60815Y39898D01*
X60851Y39964D01*
X60895Y40026D01*
X60939Y40130D01*
X60992Y40230D01*
X61013Y40303D01*
X61042Y40372D01*
X61064Y40484D01*
X61095Y40592D01*
X61102Y40683D01*
X61114Y40742D01*
X61113Y40803D01*
X61120Y40893D01*
X61120Y43639D01*
X62126Y46066D01*
X66109Y50049D01*
X68536Y51055D01*
X71164Y51055D01*
X73591Y50049D01*
X75449Y48191D01*
X76455Y45764D01*
X76455Y43136D01*
X75807Y41573D01*
X75783Y41491D01*
X75750Y41413D01*
X75730Y41312D01*
X75701Y41212D01*
X75694Y41127D01*
X75678Y41044D01*
X75681Y40940D01*
X75673Y40836D01*
X75685Y40752D01*
X75686Y40667D01*
X75710Y40566D01*
X75725Y40463D01*
X75754Y40384D01*
X75773Y40301D01*
X75818Y40207D01*
X75854Y40110D01*
X75899Y40038D01*
X75936Y39961D01*
X75999Y39879D01*
X76055Y39791D01*
X76114Y39731D01*
X76166Y39663D01*
X76245Y39596D01*
X76318Y39522D01*
X76389Y39475D01*
X76454Y39421D01*
X76546Y39372D01*
X76632Y39315D01*
X76711Y39284D01*
X76786Y39244D01*
X76886Y39216D01*
X76983Y39178D01*
X77067Y39164D01*
X77149Y39141D01*
X77281Y39130D01*
X77355Y39118D01*
X77395Y39120D01*
X77449Y39116D01*
X81777Y39116D01*
X83266Y37627D01*
X83266Y19523D01*
X81777Y18034D01*
X53673Y18034D01*
G37*
%LPD*%
%LPC*%
G36*
X89902Y189102D02*
X89902Y189102D01*
X85888Y190765D01*
X82815Y193838D01*
X81152Y197852D01*
X81152Y202198D01*
X82815Y206212D01*
X85888Y209285D01*
X86405Y209499D01*
X86530Y209567D01*
X86657Y209628D01*
X86694Y209657D01*
X86736Y209679D01*
X86843Y209772D01*
X86955Y209858D01*
X86985Y209894D01*
X87021Y209925D01*
X87106Y210038D01*
X87197Y210146D01*
X87220Y210188D01*
X87248Y210225D01*
X87308Y210354D01*
X87374Y210478D01*
X87387Y210524D01*
X87407Y210567D01*
X87438Y210705D01*
X87477Y210841D01*
X87481Y210895D01*
X87490Y210934D01*
X87491Y211008D01*
X87502Y211141D01*
X87502Y214332D01*
X87490Y214444D01*
X87488Y214558D01*
X87470Y214631D01*
X87462Y214706D01*
X87427Y214814D01*
X87401Y214924D01*
X87368Y214992D01*
X87345Y215064D01*
X87287Y215162D01*
X87238Y215264D01*
X87192Y215323D01*
X87154Y215389D01*
X87077Y215472D01*
X87008Y215562D01*
X86950Y215610D01*
X86899Y215666D01*
X86807Y215731D01*
X86720Y215804D01*
X86654Y215840D01*
X86592Y215884D01*
X86488Y215928D01*
X86388Y215981D01*
X86315Y216002D01*
X86246Y216031D01*
X86134Y216053D01*
X86026Y216084D01*
X85935Y216091D01*
X85876Y216103D01*
X85815Y216102D01*
X85725Y216109D01*
X84923Y216109D01*
X83434Y217598D01*
X83434Y232702D01*
X84923Y234191D01*
X102527Y234191D01*
X104016Y232702D01*
X104016Y217598D01*
X102527Y216109D01*
X98425Y216109D01*
X98313Y216097D01*
X98199Y216095D01*
X98126Y216077D01*
X98051Y216069D01*
X97943Y216034D01*
X97833Y216008D01*
X97765Y215975D01*
X97693Y215952D01*
X97595Y215894D01*
X97493Y215845D01*
X97434Y215799D01*
X97368Y215761D01*
X97285Y215684D01*
X97195Y215615D01*
X97147Y215557D01*
X97091Y215506D01*
X97026Y215414D01*
X96953Y215327D01*
X96917Y215261D01*
X96873Y215199D01*
X96829Y215095D01*
X96776Y214995D01*
X96755Y214922D01*
X96726Y214853D01*
X96704Y214741D01*
X96673Y214633D01*
X96666Y214542D01*
X96654Y214483D01*
X96655Y214422D01*
X96648Y214332D01*
X96648Y211141D01*
X96663Y211000D01*
X96670Y210859D01*
X96683Y210814D01*
X96688Y210767D01*
X96732Y210632D01*
X96769Y210496D01*
X96791Y210454D01*
X96805Y210409D01*
X96877Y210287D01*
X96942Y210162D01*
X96972Y210125D01*
X96996Y210084D01*
X97092Y209980D01*
X97182Y209871D01*
X97219Y209842D01*
X97251Y209807D01*
X97366Y209725D01*
X97477Y209638D01*
X97525Y209613D01*
X97558Y209590D01*
X97626Y209560D01*
X97745Y209499D01*
X98262Y209285D01*
X101335Y206212D01*
X102998Y202198D01*
X102998Y197852D01*
X101335Y193838D01*
X98262Y190765D01*
X94248Y189102D01*
X89902Y189102D01*
G37*
%LPD*%
%LPC*%
G36*
X64502Y189102D02*
X64502Y189102D01*
X60488Y190765D01*
X57415Y193838D01*
X55752Y197852D01*
X55752Y202198D01*
X57415Y206212D01*
X60488Y209285D01*
X64502Y210948D01*
X68848Y210948D01*
X72862Y209285D01*
X75935Y206212D01*
X77598Y202198D01*
X77598Y197852D01*
X75935Y193838D01*
X72862Y190765D01*
X68848Y189102D01*
X64502Y189102D01*
G37*
%LPD*%
%LPC*%
G36*
X184059Y44830D02*
X184059Y44830D01*
X184059Y60610D01*
X184232Y61256D01*
X184567Y61835D01*
X185040Y62308D01*
X185619Y62643D01*
X186265Y62816D01*
X193045Y62816D01*
X193045Y44830D01*
X184059Y44830D01*
G37*
%LPD*%
%LPC*%
G36*
X186265Y19734D02*
X186265Y19734D01*
X185619Y19907D01*
X185040Y20242D01*
X184567Y20715D01*
X184232Y21294D01*
X184059Y21940D01*
X184059Y37720D01*
X193045Y37720D01*
X193045Y19734D01*
X186265Y19734D01*
G37*
%LPD*%
%LPC*%
G36*
X97789Y69214D02*
X97789Y69214D01*
X97789Y76836D01*
X103670Y76836D01*
X105249Y76586D01*
X106770Y76091D01*
X108195Y75365D01*
X109489Y74425D01*
X110620Y73294D01*
X111560Y72000D01*
X112286Y70575D01*
X112729Y69214D01*
X97789Y69214D01*
G37*
%LPD*%
%LPC*%
G36*
X77771Y69214D02*
X77771Y69214D01*
X78214Y70575D01*
X78940Y72000D01*
X79880Y73294D01*
X81011Y74425D01*
X82305Y75365D01*
X83730Y76091D01*
X85251Y76586D01*
X86830Y76836D01*
X92711Y76836D01*
X92711Y69214D01*
X77771Y69214D01*
G37*
%LPD*%
%LPC*%
G36*
X97789Y56514D02*
X97789Y56514D01*
X97789Y64136D01*
X112729Y64136D01*
X112286Y62775D01*
X111560Y61350D01*
X110620Y60056D01*
X109489Y58925D01*
X108195Y57985D01*
X106770Y57259D01*
X105249Y56764D01*
X103670Y56514D01*
X97789Y56514D01*
G37*
%LPD*%
%LPC*%
G36*
X86830Y56514D02*
X86830Y56514D01*
X85251Y56764D01*
X83730Y57259D01*
X82305Y57985D01*
X81011Y58925D01*
X79880Y60056D01*
X78940Y61350D01*
X78214Y62775D01*
X77771Y64136D01*
X92711Y64136D01*
X92711Y56514D01*
X86830Y56514D01*
G37*
%LPD*%
%LPC*%
G36*
X88184Y32130D02*
X88184Y32130D01*
X88184Y36910D01*
X88357Y37556D01*
X88692Y38135D01*
X89165Y38608D01*
X89744Y38943D01*
X90390Y39116D01*
X100170Y39116D01*
X100170Y32130D01*
X88184Y32130D01*
G37*
%LPD*%
%LPC*%
G36*
X230030Y21209D02*
X230030Y21209D01*
X230030Y28195D01*
X242016Y28195D01*
X242016Y23415D01*
X241843Y22769D01*
X241508Y22190D01*
X241035Y21717D01*
X240456Y21382D01*
X239810Y21209D01*
X230030Y21209D01*
G37*
%LPD*%
%LPC*%
G36*
X90390Y18034D02*
X90390Y18034D01*
X89744Y18207D01*
X89165Y18542D01*
X88692Y19015D01*
X88357Y19594D01*
X88184Y20240D01*
X88184Y25020D01*
X100170Y25020D01*
X100170Y18034D01*
X90390Y18034D01*
G37*
%LPD*%
%LPC*%
G36*
X342099Y16634D02*
X342099Y16634D01*
X342099Y22176D01*
X356641Y22176D01*
X356641Y18840D01*
X356468Y18194D01*
X356133Y17615D01*
X355660Y17142D01*
X355081Y16807D01*
X354435Y16634D01*
X342099Y16634D01*
G37*
%LPD*%
%LPC*%
G36*
X323765Y16634D02*
X323765Y16634D01*
X323119Y16807D01*
X322540Y17142D01*
X322067Y17615D01*
X321732Y18194D01*
X321559Y18840D01*
X321559Y22176D01*
X336101Y22176D01*
X336101Y16634D01*
X323765Y16634D01*
G37*
%LPD*%
%LPC*%
G36*
X544399Y67587D02*
X544399Y67587D01*
X544399Y81638D01*
X549441Y81638D01*
X549441Y78303D01*
X549268Y77657D01*
X548933Y77078D01*
X548460Y76604D01*
X547678Y76153D01*
X547659Y76139D01*
X547656Y76138D01*
X547635Y76121D01*
X547571Y76088D01*
X547505Y76033D01*
X547433Y75985D01*
X547396Y75947D01*
X547374Y75931D01*
X547359Y75914D01*
X547355Y75912D01*
X547340Y75894D01*
X547282Y75846D01*
X547230Y75778D01*
X547170Y75717D01*
X547138Y75667D01*
X547123Y75650D01*
X547113Y75632D01*
X547109Y75627D01*
X547099Y75610D01*
X547051Y75548D01*
X547014Y75471D01*
X546968Y75399D01*
X546946Y75338D01*
X546937Y75323D01*
X546931Y75305D01*
X546927Y75297D01*
X546922Y75280D01*
X546888Y75209D01*
X546868Y75126D01*
X546838Y75045D01*
X546829Y74978D01*
X546824Y74964D01*
X546823Y74948D01*
X546819Y74936D01*
X546818Y74919D01*
X546800Y74843D01*
X546798Y74757D01*
X546786Y74672D01*
X546791Y74602D01*
X546790Y74589D01*
X546791Y74575D01*
X546790Y74561D01*
X546793Y74544D01*
X546791Y74466D01*
X546807Y74382D01*
X546813Y74297D01*
X546833Y74227D01*
X546835Y74215D01*
X546838Y74204D01*
X546841Y74188D01*
X546847Y74169D01*
X546861Y74097D01*
X546895Y74018D01*
X546919Y73936D01*
X546953Y73872D01*
X546958Y73859D01*
X546962Y73852D01*
X546969Y73834D01*
X546981Y73814D01*
X547008Y73750D01*
X547057Y73680D01*
X547098Y73605D01*
X547145Y73550D01*
X547153Y73537D01*
X547157Y73533D01*
X547168Y73515D01*
X547188Y73494D01*
X547225Y73442D01*
X547288Y73384D01*
X547343Y73319D01*
X547398Y73277D01*
X547411Y73263D01*
X547414Y73261D01*
X547431Y73245D01*
X547462Y73222D01*
X547501Y73186D01*
X547575Y73143D01*
X547643Y73091D01*
X547666Y73080D01*
X547678Y73072D01*
X548460Y72621D01*
X548933Y72147D01*
X549268Y71568D01*
X549441Y70922D01*
X549441Y67587D01*
X544399Y67587D01*
G37*
%LPD*%
%LPC*%
G36*
X137155Y8234D02*
X137155Y8234D01*
X137155Y14720D01*
X146141Y14720D01*
X146141Y10440D01*
X145968Y9794D01*
X145633Y9215D01*
X145160Y8742D01*
X144581Y8407D01*
X143935Y8234D01*
X137155Y8234D01*
G37*
%LPD*%
%LPC*%
G36*
X123265Y8234D02*
X123265Y8234D01*
X122619Y8407D01*
X122040Y8742D01*
X121567Y9215D01*
X121232Y9794D01*
X121059Y10440D01*
X121059Y14720D01*
X130045Y14720D01*
X130045Y8234D01*
X123265Y8234D01*
G37*
%LPD*%
%LPC*%
G36*
X69174Y146726D02*
X69174Y146726D01*
X77338Y146726D01*
X77329Y146667D01*
X76797Y145032D01*
X76017Y143500D01*
X75006Y142109D01*
X73791Y140894D01*
X72400Y139883D01*
X70868Y139103D01*
X69233Y138571D01*
X69174Y138562D01*
X69174Y146726D01*
G37*
%LPD*%
%LPC*%
G36*
X56012Y151724D02*
X56012Y151724D01*
X56021Y151783D01*
X56553Y153418D01*
X57333Y154950D01*
X58344Y156341D01*
X59559Y157556D01*
X60950Y158567D01*
X62482Y159347D01*
X64117Y159879D01*
X64176Y159888D01*
X64176Y151724D01*
X56012Y151724D01*
G37*
%LPD*%
%LPC*%
G36*
X64117Y138571D02*
X64117Y138571D01*
X62482Y139103D01*
X60950Y139883D01*
X59559Y140894D01*
X58344Y142109D01*
X57333Y143500D01*
X56553Y145032D01*
X56021Y146667D01*
X56012Y146726D01*
X64176Y146726D01*
X64176Y138562D01*
X64117Y138571D01*
G37*
%LPD*%
%LPC*%
G36*
X15259Y81584D02*
X15259Y81584D01*
X14083Y82263D01*
X13403Y83440D01*
X13403Y86285D01*
X13772Y86654D01*
X21153Y86654D01*
X21522Y86285D01*
X21522Y83440D01*
X20842Y82263D01*
X19666Y81584D01*
X15259Y81584D01*
G37*
%LPD*%
%LPC*%
G36*
X15259Y105968D02*
X15259Y105968D01*
X14083Y106647D01*
X13403Y107824D01*
X13403Y110669D01*
X13772Y111038D01*
X21153Y111038D01*
X21522Y110669D01*
X21522Y107824D01*
X20842Y106647D01*
X19666Y105968D01*
X15259Y105968D01*
G37*
%LPD*%
%LPC*%
G36*
X13946Y113771D02*
X13946Y113771D01*
X13945Y113770D01*
X13945Y113771D01*
X13772Y113771D01*
X13704Y113839D01*
X13703Y113839D01*
X13702Y113840D01*
X13609Y113867D01*
X13526Y114017D01*
X13525Y114018D01*
X13403Y114140D01*
X13403Y114237D01*
X13402Y114238D01*
X13403Y114239D01*
X13356Y114323D01*
X13403Y114489D01*
X13403Y114490D01*
X13403Y114662D01*
X13472Y114730D01*
X13472Y114732D01*
X13473Y114732D01*
X13499Y114825D01*
X13650Y114909D01*
X13650Y114910D01*
X13651Y114910D01*
X13772Y115031D01*
X13869Y115031D01*
X13870Y115032D01*
X13871Y115032D01*
X18443Y117572D01*
X18443Y117574D01*
X18445Y117575D01*
X18444Y117576D01*
X18445Y117578D01*
X18442Y117579D01*
X18440Y117581D01*
X13772Y117581D01*
X13403Y117950D01*
X13403Y118472D01*
X13772Y118841D01*
X20727Y118841D01*
X20728Y118842D01*
X20729Y118842D01*
X20814Y118889D01*
X20979Y118841D01*
X20980Y118842D01*
X20980Y118841D01*
X21153Y118841D01*
X21221Y118773D01*
X21222Y118773D01*
X21223Y118772D01*
X21316Y118745D01*
X21399Y118595D01*
X21400Y118595D01*
X21400Y118594D01*
X21522Y118472D01*
X21522Y118376D01*
X21523Y118374D01*
X21522Y118373D01*
X21569Y118289D01*
X21522Y118123D01*
X21522Y118122D01*
X21522Y117950D01*
X21453Y117882D01*
X21453Y117880D01*
X21452Y117880D01*
X21426Y117787D01*
X21275Y117703D01*
X21274Y117703D01*
X21153Y117581D01*
X21056Y117581D01*
X21055Y117580D01*
X21054Y117580D01*
X16482Y115041D01*
X16482Y115038D01*
X16480Y115037D01*
X16481Y115036D01*
X16480Y115034D01*
X16483Y115033D01*
X16485Y115031D01*
X21153Y115031D01*
X21522Y114662D01*
X21522Y114140D01*
X21153Y113771D01*
X14198Y113771D01*
X14197Y113770D01*
X14196Y113770D01*
X14111Y113723D01*
X13946Y113771D01*
G37*
%LPD*%
%LPC*%
G36*
X358099Y276112D02*
X358099Y276112D01*
X358099Y281153D01*
X361435Y281153D01*
X362081Y280980D01*
X362660Y280646D01*
X363133Y280172D01*
X363468Y279593D01*
X363641Y278947D01*
X363641Y276112D01*
X358099Y276112D01*
G37*
%LPD*%
%LPC*%
G36*
X544399Y86637D02*
X544399Y86637D01*
X544399Y92178D01*
X547235Y92178D01*
X547881Y92005D01*
X548460Y91671D01*
X548933Y91197D01*
X549268Y90618D01*
X549441Y89972D01*
X549441Y86637D01*
X544399Y86637D01*
G37*
%LPD*%
%LPC*%
G36*
X128015Y89822D02*
X128015Y89822D01*
X127369Y89995D01*
X126790Y90329D01*
X126317Y90803D01*
X125982Y91382D01*
X125809Y92028D01*
X125809Y95363D01*
X130851Y95363D01*
X130851Y89822D01*
X128015Y89822D01*
G37*
%LPD*%
%LPC*%
G36*
X13772Y121574D02*
X13772Y121574D01*
X13403Y121943D01*
X13403Y125067D01*
X13981Y126067D01*
X14980Y126644D01*
X19945Y126644D01*
X20944Y126067D01*
X21522Y125067D01*
X21522Y121943D01*
X21153Y121574D01*
X20630Y121574D01*
X20261Y121943D01*
X20261Y124490D01*
X20261Y124491D01*
X20231Y124721D01*
X20230Y124722D01*
X20230Y124723D01*
X20000Y125121D01*
X19999Y125121D01*
X19998Y125123D01*
X19600Y125353D01*
X19599Y125353D01*
X19598Y125353D01*
X19368Y125384D01*
X19368Y125383D01*
X19368Y125384D01*
X15557Y125384D01*
X15557Y125383D01*
X15557Y125384D01*
X15327Y125353D01*
X15326Y125352D01*
X15325Y125353D01*
X14927Y125123D01*
X14926Y125121D01*
X14925Y125121D01*
X14695Y124723D01*
X14695Y124721D01*
X14694Y124721D01*
X14694Y124718D01*
X14693Y124713D01*
X14692Y124708D01*
X14692Y124703D01*
X14685Y124654D01*
X14685Y124649D01*
X14684Y124644D01*
X14683Y124639D01*
X14683Y124634D01*
X14682Y124629D01*
X14675Y124579D01*
X14675Y124574D01*
X14674Y124569D01*
X14673Y124564D01*
X14673Y124559D01*
X14666Y124510D01*
X14666Y124509D01*
X14666Y124505D01*
X14665Y124500D01*
X14664Y124495D01*
X14664Y124491D01*
X14664Y124490D01*
X14664Y122839D01*
X14668Y122834D01*
X14669Y122834D01*
X17208Y122834D01*
X17213Y122839D01*
X17213Y123608D01*
X17582Y123977D01*
X18105Y123977D01*
X18474Y123608D01*
X18474Y121943D01*
X18105Y121574D01*
X13772Y121574D01*
G37*
%LPD*%
G36*
X169344Y234778D02*
X169344Y234778D01*
X169420Y234775D01*
X169532Y234794D01*
X169644Y234803D01*
X169717Y234826D01*
X169791Y234838D01*
X169896Y234880D01*
X170004Y234914D01*
X170070Y234950D01*
X170140Y234979D01*
X170234Y235042D01*
X170333Y235097D01*
X170402Y235156D01*
X170452Y235189D01*
X170494Y235233D01*
X170564Y235292D01*
X171459Y236187D01*
X171530Y236275D01*
X171608Y236356D01*
X171648Y236421D01*
X171695Y236480D01*
X171746Y236581D01*
X171805Y236677D01*
X171831Y236748D01*
X171865Y236816D01*
X171893Y236925D01*
X171931Y237032D01*
X171941Y237107D01*
X171960Y237180D01*
X171964Y237293D01*
X171979Y237405D01*
X171972Y237481D01*
X171976Y237556D01*
X171956Y237668D01*
X171947Y237781D01*
X171925Y237853D01*
X171912Y237928D01*
X171870Y238033D01*
X171837Y238141D01*
X171800Y238207D01*
X171772Y238277D01*
X171708Y238371D01*
X171653Y238469D01*
X171595Y238539D01*
X171561Y238589D01*
X171517Y238631D01*
X171459Y238700D01*
X170438Y239721D01*
X170349Y239792D01*
X170268Y239871D01*
X170203Y239910D01*
X170145Y239958D01*
X170043Y240009D01*
X169947Y240068D01*
X169876Y240093D01*
X169808Y240127D01*
X169699Y240156D01*
X169592Y240193D01*
X169517Y240203D01*
X169444Y240222D01*
X169331Y240227D01*
X169219Y240241D01*
X169143Y240235D01*
X169068Y240238D01*
X168956Y240219D01*
X168843Y240209D01*
X168771Y240187D01*
X168697Y240174D01*
X168592Y240132D01*
X168483Y240099D01*
X168417Y240062D01*
X168347Y240034D01*
X168253Y239971D01*
X168155Y239916D01*
X168085Y239857D01*
X168035Y239823D01*
X167994Y239780D01*
X167924Y239721D01*
X166859Y238656D01*
X166805Y238590D01*
X166745Y238530D01*
X166688Y238444D01*
X166622Y238363D01*
X166584Y238287D01*
X166537Y238216D01*
X166500Y238120D01*
X166453Y238027D01*
X166431Y237944D01*
X166400Y237865D01*
X166384Y237763D01*
X166358Y237662D01*
X166354Y237577D01*
X166341Y237493D01*
X166346Y237390D01*
X166342Y237286D01*
X166356Y237202D01*
X166361Y237117D01*
X166388Y237017D01*
X166405Y236915D01*
X166437Y236836D01*
X166459Y236754D01*
X166507Y236662D01*
X166546Y236566D01*
X166593Y236495D01*
X166632Y236420D01*
X166699Y236340D01*
X166757Y236254D01*
X166818Y236195D01*
X166872Y236129D01*
X166954Y236065D01*
X167029Y235993D01*
X167101Y235948D01*
X167168Y235896D01*
X167286Y235834D01*
X167349Y235796D01*
X167387Y235782D01*
X167435Y235757D01*
X167690Y235652D01*
X168050Y235292D01*
X168138Y235220D01*
X168220Y235142D01*
X168284Y235103D01*
X168343Y235055D01*
X168444Y235004D01*
X168541Y234945D01*
X168612Y234920D01*
X168679Y234886D01*
X168789Y234857D01*
X168896Y234819D01*
X168971Y234810D01*
X169044Y234791D01*
X169157Y234786D01*
X169269Y234771D01*
X169344Y234778D01*
G37*
%LPC*%
G36*
X27327Y183459D02*
X27327Y183459D01*
X27327Y188723D01*
X31591Y188723D01*
X31591Y185665D01*
X31418Y185019D01*
X31083Y184440D01*
X30610Y183967D01*
X30031Y183632D01*
X29385Y183459D01*
X27327Y183459D01*
G37*
%LPD*%
%LPC*%
G36*
X13772Y88665D02*
X13772Y88665D01*
X13403Y89034D01*
X13403Y92604D01*
X13772Y92973D01*
X21153Y92973D01*
X21522Y92604D01*
X21522Y89034D01*
X21153Y88665D01*
X20630Y88665D01*
X20261Y89034D01*
X20261Y91708D01*
X20257Y91713D01*
X20257Y91712D01*
X20256Y91713D01*
X18479Y91713D01*
X18474Y91708D01*
X18474Y89796D01*
X18105Y89427D01*
X17582Y89427D01*
X17213Y89796D01*
X17213Y91708D01*
X17209Y91713D01*
X17209Y91712D01*
X17208Y91713D01*
X14669Y91713D01*
X14664Y91708D01*
X14664Y89034D01*
X14295Y88665D01*
X13772Y88665D01*
G37*
%LPD*%
%LPC*%
G36*
X14035Y71994D02*
X14035Y71994D01*
X14034Y71994D01*
X14033Y71994D01*
X14032Y71994D01*
X13985Y71978D01*
X13792Y72075D01*
X13791Y72075D01*
X13587Y72143D01*
X13565Y72188D01*
X13563Y72188D01*
X13562Y72190D01*
X13518Y72212D01*
X13450Y72417D01*
X13353Y72610D01*
X13369Y72657D01*
X13368Y72659D01*
X13369Y72659D01*
X13368Y72660D01*
X13369Y72660D01*
X13353Y72707D01*
X13450Y72900D01*
X13450Y72901D01*
X13518Y73106D01*
X13562Y73128D01*
X13563Y73130D01*
X13565Y73130D01*
X13587Y73174D01*
X13791Y73242D01*
X13792Y73243D01*
X13985Y73339D01*
X14032Y73324D01*
X14034Y73324D01*
X14035Y73324D01*
X20940Y75625D01*
X21407Y75392D01*
X21572Y74896D01*
X21338Y74429D01*
X16040Y72664D01*
X16039Y72662D01*
X16038Y72661D01*
X16038Y72660D01*
X16037Y72658D01*
X16039Y72657D01*
X16040Y72654D01*
X21338Y70888D01*
X21572Y70421D01*
X21407Y69926D01*
X20940Y69692D01*
X14035Y71994D01*
G37*
%LPD*%
%LPC*%
G36*
X13772Y57506D02*
X13772Y57506D01*
X13403Y57875D01*
X13403Y60237D01*
X13981Y61237D01*
X14980Y61814D01*
X19945Y61814D01*
X20944Y61237D01*
X21522Y60237D01*
X21522Y57875D01*
X21153Y57506D01*
X20630Y57506D01*
X20261Y57875D01*
X20261Y59660D01*
X20261Y59661D01*
X20231Y59891D01*
X20230Y59892D01*
X20230Y59893D01*
X20000Y60291D01*
X19999Y60292D01*
X19998Y60293D01*
X19600Y60523D01*
X19599Y60523D01*
X19598Y60524D01*
X19368Y60554D01*
X15557Y60554D01*
X15327Y60524D01*
X15326Y60523D01*
X15325Y60523D01*
X14927Y60293D01*
X14926Y60291D01*
X14925Y60291D01*
X14695Y59893D01*
X14695Y59892D01*
X14694Y59891D01*
X14693Y59886D01*
X14687Y59836D01*
X14686Y59831D01*
X14686Y59826D01*
X14685Y59821D01*
X14684Y59816D01*
X14678Y59767D01*
X14677Y59762D01*
X14676Y59757D01*
X14676Y59752D01*
X14675Y59747D01*
X14668Y59692D01*
X14667Y59687D01*
X14667Y59682D01*
X14666Y59677D01*
X14665Y59672D01*
X14664Y59661D01*
X14664Y59660D01*
X14664Y57875D01*
X14295Y57506D01*
X13772Y57506D01*
G37*
%LPD*%
%LPC*%
G36*
X13772Y63602D02*
X13772Y63602D01*
X13403Y63971D01*
X13403Y66333D01*
X13980Y67333D01*
X14980Y67910D01*
X19945Y67910D01*
X20944Y67333D01*
X21522Y66333D01*
X21522Y63971D01*
X21153Y63602D01*
X20630Y63602D01*
X20261Y63971D01*
X20261Y65756D01*
X20261Y65757D01*
X20231Y65987D01*
X20230Y65988D01*
X20230Y65989D01*
X20000Y66387D01*
X19999Y66388D01*
X19998Y66389D01*
X19600Y66619D01*
X19599Y66619D01*
X19598Y66619D01*
X19368Y66650D01*
X15557Y66650D01*
X15327Y66619D01*
X15326Y66619D01*
X15325Y66619D01*
X14927Y66389D01*
X14926Y66387D01*
X14925Y66387D01*
X14695Y65989D01*
X14695Y65988D01*
X14695Y65987D01*
X14694Y65987D01*
X14693Y65983D01*
X14693Y65978D01*
X14692Y65973D01*
X14692Y65968D01*
X14691Y65968D01*
X14692Y65968D01*
X14684Y65913D01*
X14684Y65908D01*
X14683Y65903D01*
X14682Y65898D01*
X14682Y65893D01*
X14675Y65839D01*
X14674Y65839D01*
X14674Y65838D01*
X14674Y65834D01*
X14673Y65829D01*
X14673Y65824D01*
X14672Y65819D01*
X14665Y65764D01*
X14664Y65759D01*
X14664Y65757D01*
X14664Y65756D01*
X14664Y63971D01*
X14295Y63602D01*
X13772Y63602D01*
G37*
%LPD*%
%LPC*%
G36*
X13772Y95004D02*
X13772Y95004D01*
X13403Y95374D01*
X13403Y98944D01*
X13772Y99313D01*
X21153Y99313D01*
X21522Y98944D01*
X21522Y98422D01*
X21153Y98052D01*
X14669Y98052D01*
X14664Y98048D01*
X14664Y98047D01*
X14664Y95374D01*
X14295Y95004D01*
X13772Y95004D01*
G37*
%LPD*%
G36*
X18987Y107229D02*
X18987Y107229D01*
X18987Y107228D01*
X19316Y107272D01*
X19317Y107273D01*
X19318Y107272D01*
X19887Y107601D01*
X19887Y107603D01*
X19889Y107603D01*
X20217Y108172D01*
X20217Y108173D01*
X20218Y108174D01*
X20220Y108191D01*
X20221Y108196D01*
X20222Y108201D01*
X20222Y108206D01*
X20223Y108211D01*
X20229Y108260D01*
X20230Y108265D01*
X20231Y108270D01*
X20231Y108275D01*
X20232Y108280D01*
X20233Y108285D01*
X20239Y108335D01*
X20240Y108340D01*
X20241Y108345D01*
X20241Y108350D01*
X20242Y108355D01*
X20248Y108405D01*
X20249Y108409D01*
X20249Y108410D01*
X20250Y108414D01*
X20250Y108415D01*
X20250Y108419D01*
X20251Y108424D01*
X20258Y108474D01*
X20258Y108479D01*
X20259Y108484D01*
X20259Y108489D01*
X20260Y108489D01*
X20259Y108489D01*
X20260Y108494D01*
X20261Y108502D01*
X20261Y108503D01*
X20261Y109773D01*
X20257Y109778D01*
X20256Y109778D01*
X14669Y109778D01*
X14664Y109774D01*
X14664Y109773D01*
X14664Y108503D01*
X14707Y108174D01*
X14708Y108173D01*
X14708Y108172D01*
X15036Y107603D01*
X15038Y107602D01*
X15038Y107601D01*
X15607Y107272D01*
X15609Y107273D01*
X15609Y107272D01*
X15938Y107228D01*
X15938Y107229D01*
X15938Y107228D01*
X18986Y107228D01*
X18987Y107229D01*
G37*
G36*
X18987Y82845D02*
X18987Y82845D01*
X19316Y82888D01*
X19317Y82889D01*
X19318Y82888D01*
X19887Y83217D01*
X19887Y83219D01*
X19889Y83219D01*
X20217Y83788D01*
X20217Y83789D01*
X20218Y83789D01*
X20217Y83790D01*
X20218Y83790D01*
X20219Y83794D01*
X20219Y83799D01*
X20220Y83804D01*
X20228Y83864D01*
X20228Y83869D01*
X20229Y83874D01*
X20230Y83879D01*
X20230Y83884D01*
X20231Y83889D01*
X20239Y83948D01*
X20239Y83953D01*
X20240Y83953D01*
X20239Y83953D01*
X20240Y83958D01*
X20241Y83963D01*
X20241Y83968D01*
X20242Y83973D01*
X20250Y84033D01*
X20251Y84038D01*
X20251Y84043D01*
X20252Y84048D01*
X20253Y84053D01*
X20253Y84058D01*
X20261Y84117D01*
X20261Y84119D01*
X20261Y85389D01*
X20257Y85394D01*
X20256Y85394D01*
X14669Y85394D01*
X14664Y85390D01*
X14664Y85389D01*
X14664Y84119D01*
X14707Y83790D01*
X14708Y83789D01*
X14708Y83788D01*
X15036Y83219D01*
X15038Y83218D01*
X15038Y83217D01*
X15607Y82888D01*
X15609Y82889D01*
X15609Y82888D01*
X15938Y82845D01*
X15938Y82844D01*
X18987Y82844D01*
X18987Y82845D01*
G37*
%LPC*%
G36*
X103724Y28574D02*
X103724Y28574D01*
X103724Y28576D01*
X103726Y28576D01*
X103726Y28574D01*
X103724Y28574D01*
G37*
%LPD*%
D10*
X339100Y25175D03*
X339100Y45175D03*
X339100Y65175D03*
X339100Y85175D03*
X339100Y105175D03*
X339100Y125175D03*
X339100Y145175D03*
X339100Y165175D03*
X499100Y25175D03*
X499100Y45175D03*
X499100Y65175D03*
X499100Y85175D03*
X499100Y105175D03*
X499100Y125175D03*
X499100Y145175D03*
X499100Y165175D03*
D11*
X193100Y220726D03*
X185100Y220726D03*
X177100Y220726D03*
X169100Y220726D03*
X161100Y220726D03*
X153100Y220726D03*
X145100Y220726D03*
X137100Y220726D03*
D12*
X122174Y205800D03*
X122174Y197800D03*
X122174Y189800D03*
X122174Y181800D03*
X122174Y173800D03*
X122174Y165800D03*
X122174Y157800D03*
X122174Y149800D03*
D11*
X137100Y134874D03*
X145100Y134874D03*
X153100Y134874D03*
X161100Y134874D03*
X169100Y134874D03*
X177100Y134874D03*
X185100Y134874D03*
X193100Y134874D03*
D12*
X208026Y149800D03*
X208026Y157800D03*
X208026Y165800D03*
X208026Y173800D03*
X208026Y181800D03*
X208026Y189800D03*
X208026Y197800D03*
X208026Y205800D03*
D13*
X205700Y133575D03*
X205700Y127075D03*
X205700Y120575D03*
X205700Y114075D03*
X264200Y114075D03*
X264200Y120575D03*
X264200Y127075D03*
X264200Y133575D03*
D14*
X133600Y64275D03*
X133600Y41275D03*
X133600Y18275D03*
D15*
X196600Y41275D03*
D16*
G36*
X159311Y248510D02*
X150827Y256994D01*
X158605Y264772D01*
X167089Y256288D01*
X159311Y248510D01*
G37*
G36*
X141988Y281389D02*
X150472Y272905D01*
X142694Y265127D01*
X134210Y273611D01*
X141988Y281389D01*
G37*
G36*
X129614Y269015D02*
X138098Y260531D01*
X130320Y252753D01*
X121836Y261237D01*
X129614Y269015D01*
G37*
G36*
X146937Y236136D02*
X138453Y244620D01*
X146231Y252398D01*
X154715Y243914D01*
X146937Y236136D01*
G37*
D17*
X93725Y270150D03*
X14225Y270150D03*
X93725Y225150D03*
X14225Y225150D03*
D18*
X327300Y203138D03*
X327300Y282638D03*
X282300Y203138D03*
X282300Y282638D03*
D19*
X92075Y174625D03*
X66675Y174625D03*
X66675Y149225D03*
D20*
X92075Y149225D03*
D19*
X92075Y200025D03*
X66675Y200025D03*
D21*
X87630Y66675D02*
X102870Y66675D01*
X102870Y92075D02*
X87630Y92075D01*
X87630Y117475D02*
X102870Y117475D01*
D22*
X303213Y174625D03*
X303213Y149225D03*
X303213Y123825D03*
X303213Y98425D03*
D23*
X12550Y190500D03*
X25550Y190500D03*
X298300Y282575D03*
X311300Y282575D03*
D24*
G36*
X167424Y276774D02*
X174848Y269350D01*
X167212Y261714D01*
X159788Y269138D01*
X167424Y276774D01*
G37*
G36*
X155050Y289148D02*
X162474Y281724D01*
X154838Y274088D01*
X147414Y281512D01*
X155050Y289148D01*
G37*
G36*
X126755Y271519D02*
X119331Y264095D01*
X111695Y271731D01*
X119119Y279155D01*
X126755Y271519D01*
G37*
G36*
X139130Y283894D02*
X131706Y276470D01*
X124070Y284106D01*
X131494Y291530D01*
X139130Y283894D01*
G37*
D25*
X149225Y96363D03*
X149225Y116363D03*
D26*
X180975Y97863D03*
X180975Y114863D03*
X165100Y97863D03*
X165100Y114863D03*
D27*
X226475Y31750D03*
X262475Y31750D03*
X103725Y28575D03*
X67725Y28575D03*
D26*
X13725Y206375D03*
X30725Y206375D03*
D28*
X14288Y240150D03*
X14288Y255150D03*
X297300Y203200D03*
X312300Y203200D03*
D29*
X355600Y256613D03*
X355600Y273613D03*
D26*
X541900Y46038D03*
X524900Y46038D03*
D22*
X530225Y106363D03*
X530225Y131763D03*
D26*
X524900Y65088D03*
X541900Y65088D03*
X524900Y84138D03*
X541900Y84138D03*
X507438Y182563D03*
X524438Y182563D03*
X524438Y200025D03*
X507438Y200025D03*
D30*
X260975Y227700D03*
X227975Y227700D03*
X260975Y178700D03*
X227975Y178700D03*
D31*
X239600Y82575D03*
X239600Y101575D03*
X217600Y92075D03*
D32*
X219125Y66675D03*
X257125Y66675D03*
D33*
X273050Y63350D03*
X273050Y76350D03*
D26*
X244706Y146844D03*
X261706Y146844D03*
X272025Y101600D03*
X255025Y101600D03*
D29*
X252975Y244475D03*
X235975Y244475D03*
D26*
X261706Y161925D03*
X244706Y161925D03*
X133350Y97863D03*
X133350Y114863D03*
D22*
X255588Y268288D03*
X230188Y268288D03*
X204788Y268288D03*
D29*
G36*
X177626Y238818D02*
X169849Y231041D01*
X162778Y238112D01*
X170555Y245889D01*
X177626Y238818D01*
G37*
G36*
X189647Y250838D02*
X181870Y243061D01*
X174799Y250132D01*
X182576Y257909D01*
X189647Y250838D01*
G37*
D26*
X278606Y138675D03*
X278606Y121675D03*
D34*
X104775Y66675D02*
X95250Y66675D01*
X148750Y96838D02*
X149225Y96363D01*
D35*
X181538Y100013D02*
X201613Y100013D01*
X206375Y104775D01*
X236400Y104775D01*
X239600Y101575D01*
X239625Y101600D01*
X255025Y101600D01*
D36*
X279400Y88900D02*
X288925Y98425D01*
X279400Y88900D02*
X263525Y88900D01*
X255025Y97400D01*
X255025Y101600D01*
X288925Y98425D02*
X288925Y131200D01*
D37*
X267488Y133575D02*
X264200Y133575D01*
D38*
X153100Y206375D02*
X153100Y220726D01*
D36*
X260975Y227700D02*
X260975Y236475D01*
X252975Y244475D01*
D37*
X242888Y254000D02*
X228600Y254000D01*
X242888Y254000D02*
X252413Y244475D01*
X252975Y244475D01*
D35*
X180975Y97863D02*
X180975Y87313D01*
X169863Y76200D01*
X150813Y76200D01*
D36*
X169100Y220726D02*
X169100Y237363D01*
X170202Y238465D01*
D38*
X49213Y255588D02*
X48775Y255150D01*
D36*
X133350Y97863D02*
X147725Y97863D01*
X148750Y96838D01*
D37*
X264200Y133575D02*
X271919Y133575D01*
D36*
X277019Y138675D02*
X278606Y138675D01*
D37*
X277019Y138675D02*
X271919Y133575D01*
D36*
X264200Y144350D02*
X261706Y146844D01*
D37*
X264200Y144350D02*
X264200Y133575D01*
D36*
X278606Y138675D02*
X281450Y138675D01*
X288925Y131200D01*
D37*
X202879Y215973D02*
X202879Y228279D01*
X202879Y215973D02*
X197472Y210566D01*
X194691Y210566D01*
X192088Y207963D01*
X202879Y228279D02*
X228600Y254000D01*
D36*
X197472Y210566D02*
X194869Y207963D01*
X142875Y198438D02*
X137351Y203962D01*
X137351Y205515D01*
X112646Y230220D01*
X112646Y230255D01*
X120650Y222250D01*
X179388Y207963D02*
X194869Y207963D01*
X179388Y207963D02*
X169863Y198438D01*
X142875Y198438D01*
D35*
X111125Y28575D02*
X103725Y28575D01*
D34*
X121425Y18275D02*
X133600Y18275D01*
X121425Y18275D02*
X111125Y28575D01*
D38*
X165100Y85725D02*
X165100Y97863D01*
D39*
X165100Y85725D03*
D40*
X235975Y243450D02*
X235975Y244475D01*
X242888Y236538D02*
X242888Y233363D01*
X242888Y236538D02*
X235975Y243450D01*
D39*
X242888Y233363D03*
D36*
X327300Y282638D02*
X335175Y290513D01*
X339725Y290513D01*
D39*
X339725Y290513D03*
D38*
X541900Y46038D02*
X541900Y37075D01*
X530000Y25175D02*
X499100Y25175D01*
X530000Y25175D02*
X541900Y37075D01*
D34*
X499100Y25175D02*
X476475Y25175D01*
D40*
X476250Y25400D01*
D39*
X476250Y25400D03*
D34*
X148450Y64275D02*
X133600Y64275D01*
X148450Y64275D02*
X149225Y63500D01*
D39*
X149225Y63500D03*
D34*
X67725Y42325D02*
X67725Y28575D01*
X67725Y42325D02*
X69850Y44450D01*
D39*
X69850Y44450D03*
D34*
X29888Y270150D02*
X14225Y270150D01*
X29888Y270150D02*
X30163Y269875D01*
D39*
X30163Y269875D03*
D37*
X227975Y178700D02*
X239025Y178700D01*
X241300Y180975D01*
D39*
X241300Y180975D03*
D37*
X205700Y133575D02*
X205700Y127075D01*
X205700Y120650D02*
X205700Y114075D01*
X205700Y120575D02*
X205775Y120650D01*
X273050Y63350D02*
X273200Y63500D01*
D38*
X285750Y63500D01*
D39*
X285750Y63500D03*
D34*
X282575Y31750D02*
X262475Y31750D01*
D39*
X282575Y31750D03*
D37*
X264200Y127075D02*
X253925Y127075D01*
X250825Y130175D01*
X250825Y133350D01*
D39*
X250825Y133350D03*
D38*
X495300Y200025D02*
X507438Y200025D01*
D39*
X495300Y200025D03*
D40*
X169100Y134874D02*
X169100Y128325D01*
X180975Y116450D02*
X180975Y114863D01*
X180975Y116450D02*
X169100Y128325D01*
D36*
X133350Y114863D02*
X127734Y120479D01*
X127734Y127000D01*
D39*
X127734Y127000D03*
D37*
X180975Y114863D02*
X186763Y120650D01*
X192088Y120650D01*
X205700Y120650D01*
D39*
X192088Y120650D03*
D37*
X205700Y120650D02*
X205775Y120650D01*
X205700Y120650D02*
X205700Y127075D01*
D36*
X131600Y284000D02*
X138113Y290513D01*
X142875Y290513D01*
D39*
X142875Y290513D03*
D36*
X153988Y282575D02*
X154944Y281618D01*
X153988Y282575D02*
X146050Y290513D01*
X142875Y290513D01*
X182223Y250485D02*
X188913Y257175D01*
X192088Y257175D01*
D39*
X192088Y257175D03*
D36*
X142341Y273258D02*
X131600Y284000D01*
X142341Y273258D02*
X142341Y273258D01*
X143929Y273258D01*
X144671Y273258D01*
X153988Y282575D01*
X143929Y273258D02*
X143929Y246922D01*
X146584Y244267D01*
X180934Y249196D02*
X182223Y250485D01*
X177100Y231750D02*
X177100Y220726D01*
X177100Y231750D02*
X181691Y236341D01*
X181691Y248439D01*
X180934Y249196D01*
X161100Y220726D02*
X161100Y208054D01*
X161191Y207963D01*
D39*
X161191Y207963D03*
D37*
X264200Y127075D02*
X271619Y127075D01*
X277019Y121675D01*
D36*
X278606Y121675D01*
X145100Y220726D02*
X145100Y227650D01*
X160338Y242888D01*
X160338Y255262D01*
X158958Y256641D01*
X167318Y265001D02*
X167318Y269244D01*
X167318Y265001D02*
X158958Y256641D01*
X137100Y237550D02*
X137100Y220726D01*
X137100Y237550D02*
X130175Y244475D01*
X129967Y260884D02*
X129967Y260884D01*
X130175Y260676D02*
X119225Y271625D01*
X130175Y260676D02*
X130175Y260676D01*
X129967Y260884D01*
X130175Y260676D02*
X130175Y244475D01*
D38*
X145100Y134874D02*
X145100Y118726D01*
X149225Y116363D01*
D36*
X121599Y149225D02*
X122174Y149800D01*
X121599Y149225D02*
X92075Y149225D01*
D40*
X79375Y161925D02*
X66675Y174625D01*
X108900Y157800D02*
X122174Y157800D01*
X104775Y161925D02*
X79375Y161925D01*
X104775Y161925D02*
X108900Y157800D01*
D39*
X144463Y169863D03*
D40*
X144463Y148844D02*
X137100Y141482D01*
X144463Y148844D02*
X144463Y169863D01*
X137100Y141482D02*
X137100Y134874D01*
D37*
X95250Y174625D02*
X92075Y174625D01*
X95250Y174625D02*
X100013Y169863D01*
X107950Y169863D01*
D39*
X107950Y169863D03*
D40*
X161100Y133287D02*
X161131Y133255D01*
X161100Y133287D02*
X161100Y134874D01*
D38*
X161131Y133255D02*
X161131Y118831D01*
D40*
X165100Y114863D01*
X247759Y114075D02*
X264200Y114075D01*
X272025Y102625D02*
X272025Y101600D01*
X264200Y110450D02*
X264200Y114075D01*
X264200Y110450D02*
X272025Y102625D01*
X208026Y165800D02*
X199138Y165800D01*
X195263Y161925D01*
X195263Y147638D01*
X203200Y139700D01*
X222134Y139700D01*
X247759Y114075D01*
D37*
X250900Y120575D02*
X264200Y120575D01*
X250900Y120575D02*
X241300Y130175D01*
X241300Y146844D01*
D40*
X214344Y173800D02*
X208026Y173800D01*
X214344Y173800D02*
X241300Y146844D01*
D37*
X244706Y146844D01*
X102394Y92075D02*
X95250Y92075D01*
D40*
X102394Y92075D02*
X107950Y92075D01*
X117475Y101600D01*
X117475Y130175D01*
X136525Y149225D01*
D39*
X193675Y198438D03*
X211138Y215900D03*
D36*
X222938Y227700D01*
X227975Y227700D01*
D40*
X193675Y198438D02*
X184150Y188913D01*
X142875Y188913D01*
X136525Y182563D01*
X136525Y149225D01*
X102394Y92075D02*
X89694Y92075D01*
D36*
X30725Y206375D02*
X30725Y232620D01*
X23195Y240150D02*
X14288Y240150D01*
X23195Y240150D02*
X30725Y232620D01*
D38*
X335925Y165175D02*
X339100Y165175D01*
X282363Y203200D02*
X282300Y203138D01*
D36*
X282363Y203200D02*
X297300Y203200D01*
X297300Y201613D02*
X333738Y165175D01*
D38*
X297300Y201613D02*
X297300Y203200D01*
X333738Y165175D02*
X339100Y165175D01*
D40*
X298238Y282638D02*
X282300Y282638D01*
X298238Y282638D02*
X298300Y282575D01*
D38*
X499963Y46038D02*
X524900Y46038D01*
X499963Y46038D02*
X499100Y45175D01*
X499100Y65175D02*
X524813Y65175D01*
D40*
X524900Y65088D01*
X218375Y189800D02*
X208026Y189800D01*
X218375Y189800D02*
X221803Y193228D01*
X303213Y153988D02*
X303213Y149225D01*
X263972Y193228D02*
X221803Y193228D01*
X263972Y193228D02*
X303213Y153988D01*
D37*
X303213Y149225D02*
X317103Y135334D01*
X448072Y135334D02*
X477838Y165100D01*
D40*
X499025Y165100D02*
X499100Y165175D01*
D37*
X499025Y165100D02*
X477838Y165100D01*
X448072Y135334D02*
X317103Y135334D01*
D40*
X265750Y199388D02*
X217551Y199388D01*
X215964Y197800D02*
X208026Y197800D01*
X215964Y197800D02*
X217551Y199388D01*
D37*
X290513Y174625D02*
X303213Y174625D01*
D40*
X290513Y174625D02*
X265750Y199388D01*
X303213Y174625D02*
X303213Y173038D01*
D37*
X321072Y155178D01*
X440928Y155178D01*
X468313Y182563D02*
X507438Y182563D01*
X468313Y182563D02*
X440928Y155178D01*
D34*
X217600Y92075D02*
X217600Y68200D01*
D35*
X219125Y66675D01*
D34*
X219125Y65038D01*
X234950Y49213D01*
X288925Y49213D01*
X303213Y63500D01*
X303213Y98425D01*
D35*
X257125Y66675D02*
X241225Y82575D01*
X239600Y82575D01*
X257125Y66675D02*
X266800Y76350D01*
X273050Y76350D01*
D40*
X499100Y145175D02*
X499975Y146050D01*
X517525Y146050D01*
X524438Y152963D01*
X524438Y182563D01*
X524438Y200025D01*
D37*
X219650Y149800D02*
X208026Y149800D01*
X219650Y149800D02*
X223044Y153194D01*
D39*
X223044Y153194D03*
X234223Y165167D03*
D37*
X241464Y165167D01*
X244706Y161925D01*
D39*
X146050Y180975D03*
D37*
X146875Y181800D01*
X208026Y181800D01*
D36*
X13725Y206375D02*
X13725Y224650D01*
D37*
X14225Y225150D01*
D36*
X13725Y206375D02*
X13725Y191675D01*
D37*
X12550Y190500D01*
D36*
X92075Y200025D02*
X92075Y223500D01*
D40*
X93725Y225150D01*
X311300Y276075D02*
X311300Y282575D01*
X311300Y276075D02*
X317500Y269875D01*
X351863Y269875D01*
X355600Y273613D01*
D37*
X260975Y178700D02*
X261706Y177969D01*
X261706Y161925D01*
X259775Y205800D02*
X208026Y205800D01*
X259775Y205800D02*
X271463Y217488D01*
X271463Y252413D01*
X255588Y268288D01*
X193100Y228819D02*
X193100Y220726D01*
X193100Y228819D02*
X230188Y265906D01*
X230188Y268288D01*
X185100Y230344D02*
X185100Y220726D01*
X185100Y230344D02*
X204788Y250031D01*
X204788Y268288D01*
D38*
X524900Y101038D02*
X530225Y106363D01*
X524900Y101038D02*
X524900Y84138D01*
D36*
X508000Y84138D02*
X499100Y85175D01*
X508000Y84138D02*
X524900Y84138D01*
X312300Y203200D02*
X312300Y213313D01*
X355600Y256613D01*
M02*
