M48
;GenerationSoftware,Autodesk,EAGLE,9.4.1*%
;CreationDate,2019-06-30T19:39:41Z*%
FMAT,2
ICI,OFF
METRIC,TZ,000.000
T3C0.350
T2C1.000
T1C1.016
%
G90
M71
T1
X30321Y9843
X9525Y6667
X9525Y9208
X9525Y11747
X30321Y17463
X30321Y14922
X30321Y12382
X53022Y10636
X53022Y13176
X25559Y26829
X23019Y26829
X20479Y26829
T2
X6667Y14922
X9208Y17463
X6667Y17463
X9208Y14922
X9208Y20003
X6667Y20003
T3
X10795Y16986
X19368Y19844
X21114Y21590
X6985Y4445
X23422Y16517
X14605Y18098
X16510Y8573
X24289Y23336
X22304Y15319
X33973Y29051
X47625Y2540
X14922Y6350
X3016Y26987
X24130Y18098
X28575Y6350
X28257Y3175
X25082Y13335
X49530Y20003
X16119Y20796
X12773Y12700
X19209Y12065
X14287Y29051
X19209Y25717
X14446Y16986
M30