G04 EAGLE Gerber X2 export*
%TF.Part,Single*%
%TF.FileFunction,Soldermask,Top,1*%
%TF.FilePolarity,Negative*%
%TF.GenerationSoftware,Autodesk,EAGLE,9.4.1*%
%TF.CreationDate,2019-06-30T19:39:41Z*%
G75*
%MOMM*%
%FSLAX34Y34*%
%LPD*%
%INSoldermask Top*%
%AMOC8*
5,1,8,0,0,1.08239X$1,22.5*%
G01*
%ADD10R,3.152400X1.352400*%
%ADD11R,0.711200X1.422400*%
%ADD12R,1.422400X0.711200*%
%ADD13R,1.352400X0.502400*%
%ADD14R,2.152400X1.652400*%
%ADD15R,2.152400X3.952400*%
%ADD16R,1.352400X1.252400*%
%ADD17R,1.702400X1.452400*%
%ADD18R,1.452400X1.702400*%
%ADD19C,1.828800*%
%ADD20R,1.828800X1.828800*%
%ADD21C,1.676400*%
%ADD22C,2.032000*%
%ADD23R,0.852400X1.052400*%
%ADD24R,1.202400X1.232400*%
%ADD25R,1.152400X1.152400*%
%ADD26R,1.152400X1.252400*%
%ADD27R,2.752400X1.752400*%
%ADD28R,0.952400X0.952400*%
%ADD29R,1.252400X1.152400*%
%ADD30R,1.052400X1.652400*%
%ADD31R,1.552400X1.152400*%
%ADD32R,1.552400X1.552400*%
%ADD33R,1.052400X0.852400*%


D10*
X339100Y25175D03*
X339100Y45175D03*
X339100Y65175D03*
X339100Y85175D03*
X339100Y105175D03*
X339100Y125175D03*
X339100Y145175D03*
X339100Y165175D03*
X499100Y25175D03*
X499100Y45175D03*
X499100Y65175D03*
X499100Y85175D03*
X499100Y105175D03*
X499100Y125175D03*
X499100Y145175D03*
X499100Y165175D03*
D11*
X193100Y220726D03*
X185100Y220726D03*
X177100Y220726D03*
X169100Y220726D03*
X161100Y220726D03*
X153100Y220726D03*
X145100Y220726D03*
X137100Y220726D03*
D12*
X122174Y205800D03*
X122174Y197800D03*
X122174Y189800D03*
X122174Y181800D03*
X122174Y173800D03*
X122174Y165800D03*
X122174Y157800D03*
X122174Y149800D03*
D11*
X137100Y134874D03*
X145100Y134874D03*
X153100Y134874D03*
X161100Y134874D03*
X169100Y134874D03*
X177100Y134874D03*
X185100Y134874D03*
X193100Y134874D03*
D12*
X208026Y149800D03*
X208026Y157800D03*
X208026Y165800D03*
X208026Y173800D03*
X208026Y181800D03*
X208026Y189800D03*
X208026Y197800D03*
X208026Y205800D03*
D13*
X205700Y133575D03*
X205700Y127075D03*
X205700Y120575D03*
X205700Y114075D03*
X264200Y114075D03*
X264200Y120575D03*
X264200Y127075D03*
X264200Y133575D03*
D14*
X133600Y64275D03*
X133600Y41275D03*
X133600Y18275D03*
D15*
X196600Y41275D03*
D16*
G36*
X159311Y247432D02*
X149749Y256994D01*
X158605Y265850D01*
X168167Y256288D01*
X159311Y247432D01*
G37*
G36*
X141988Y282467D02*
X151550Y272905D01*
X142694Y264049D01*
X133132Y273611D01*
X141988Y282467D01*
G37*
G36*
X129614Y270093D02*
X139176Y260531D01*
X130320Y251675D01*
X120758Y261237D01*
X129614Y270093D01*
G37*
G36*
X146937Y235058D02*
X137375Y244620D01*
X146231Y253476D01*
X155793Y243914D01*
X146937Y235058D01*
G37*
D17*
X93725Y270150D03*
X14225Y270150D03*
X93725Y225150D03*
X14225Y225150D03*
D18*
X327300Y203138D03*
X327300Y282638D03*
X282300Y203138D03*
X282300Y282638D03*
D19*
X92075Y174625D03*
X66675Y174625D03*
X66675Y149225D03*
D20*
X92075Y149225D03*
D19*
X92075Y200025D03*
X66675Y200025D03*
D21*
X87630Y66675D02*
X102870Y66675D01*
X102870Y92075D02*
X87630Y92075D01*
X87630Y117475D02*
X102870Y117475D01*
D22*
X303213Y174625D03*
X303213Y149225D03*
X303213Y123825D03*
X303213Y98425D03*
D23*
X12550Y190500D03*
X25550Y190500D03*
X298300Y282575D03*
X311300Y282575D03*
D24*
G36*
X167424Y277852D02*
X175926Y269350D01*
X167212Y260636D01*
X158710Y269138D01*
X167424Y277852D01*
G37*
G36*
X155050Y290226D02*
X163552Y281724D01*
X154838Y273010D01*
X146336Y281512D01*
X155050Y290226D01*
G37*
G36*
X127833Y271519D02*
X119331Y263017D01*
X110617Y271731D01*
X119119Y280233D01*
X127833Y271519D01*
G37*
G36*
X140208Y283894D02*
X131706Y275392D01*
X122992Y284106D01*
X131494Y292608D01*
X140208Y283894D01*
G37*
D25*
X149225Y96363D03*
X149225Y116363D03*
D26*
X180975Y97863D03*
X180975Y114863D03*
X165100Y97863D03*
X165100Y114863D03*
D27*
X226475Y31750D03*
X262475Y31750D03*
X103725Y28575D03*
X67725Y28575D03*
D26*
X13725Y206375D03*
X30725Y206375D03*
D28*
X14288Y240150D03*
X14288Y255150D03*
X297300Y203200D03*
X312300Y203200D03*
D29*
X355600Y256613D03*
X355600Y273613D03*
D26*
X541900Y46038D03*
X524900Y46038D03*
D22*
X530225Y106363D03*
X530225Y131763D03*
D26*
X524900Y65088D03*
X541900Y65088D03*
X524900Y84138D03*
X541900Y84138D03*
X507438Y182563D03*
X524438Y182563D03*
X524438Y200025D03*
X507438Y200025D03*
D30*
X260975Y227700D03*
X227975Y227700D03*
X260975Y178700D03*
X227975Y178700D03*
D31*
X239600Y82575D03*
X239600Y101575D03*
X217600Y92075D03*
D32*
X219125Y66675D03*
X257125Y66675D03*
D33*
X273050Y63350D03*
X273050Y76350D03*
D26*
X244706Y146844D03*
X261706Y146844D03*
X272025Y101600D03*
X255025Y101600D03*
D29*
X252975Y244475D03*
X235975Y244475D03*
D26*
X261706Y161925D03*
X244706Y161925D03*
X133350Y97863D03*
X133350Y114863D03*
D22*
X255588Y268288D03*
X230188Y268288D03*
X204788Y268288D03*
D29*
G36*
X178704Y238818D02*
X169849Y229963D01*
X161700Y238112D01*
X170555Y246967D01*
X178704Y238818D01*
G37*
G36*
X190725Y250838D02*
X181870Y241983D01*
X173721Y250132D01*
X182576Y258987D01*
X190725Y250838D01*
G37*
D26*
X278606Y138675D03*
X278606Y121675D03*
M02*
